<svg xmlns="http://www.w3.org/2000/svg" width="15.79" height="15.791" viewBox="0 0 15.79 15.791">
  <g id="cash-bundle" transform="translate(-1 -1)">
    <path id="Path_7409" data-name="Path 7409" d="M14.637,11.048H3.153A2.155,2.155,0,0,1,1,8.9V3.153A2.155,2.155,0,0,1,3.153,1H14.637A2.155,2.155,0,0,1,16.79,3.153V8.9A2.155,2.155,0,0,1,14.637,11.048Z" transform="translate(0 0)" fill="#b5c5fa"/>
    <circle id="Ellipse_272" data-name="Ellipse 272" cx="0.5" cy="0.5" r="0.5" transform="translate(4 5.395)" fill="#1539ce"/>
    <ellipse id="Ellipse_273" data-name="Ellipse 273" cx="1" cy="0.5" rx="1" ry="0.5" transform="translate(12 5.395)" fill="#1539ce"/>
    <path id="Path_7410" data-name="Path 7410" d="M13.742,11.048H8V1h5.742Z" transform="translate(-1.976 0)" fill="#1539ce"/>
    <path id="Path_7411" data-name="Path 7411" d="M8,15h5.742v2.871H8Z" transform="translate(-1.976 -3.952)" fill="#b5c5fa"/>
    <path id="Path_7412" data-name="Path 7412" d="M8,19h5.742v2.871H8Z" transform="translate(-1.976 -5.081)" fill="#8aa5ff"/>
    <path id="Path_7413" data-name="Path 7413" d="M3.153,14.153A2.155,2.155,0,0,1,1,12v2.871a2.155,2.155,0,0,0,2.153,2.153H6.024V14.153Zm11.484,0H11.766v2.871h2.871a2.155,2.155,0,0,0,2.153-2.153V12A2.155,2.155,0,0,1,14.637,14.153Z" transform="translate(0 -3.105)" fill="#d8e1ff"/>
    <path id="Path_7414" data-name="Path 7414" d="M14.637,18.153H11.766v2.871h2.871a2.155,2.155,0,0,0,2.153-2.153V16a2.155,2.155,0,0,1-2.153,2.153Zm-11.484,0A2.155,2.155,0,0,1,1,16v2.871a2.155,2.155,0,0,0,2.153,2.153H6.024V18.153Z" transform="translate(0 -4.234)" fill="#b5c5fa"/>
  </g>
</svg>
