<svg id="Group_3201" data-name="Group 3201" xmlns="http://www.w3.org/2000/svg" xmlns:xlink="http://www.w3.org/1999/xlink" width="172.631" height="56.167" viewBox="0 0 172.631 56.167">
  <defs>
    <linearGradient id="linear-gradient" x1="0.5" x2="0.5" y2="1" gradientUnits="objectBoundingBox">
      <stop offset="0" stop-color="#00bffc"/>
      <stop offset="1" stop-color="#0073f6"/>
    </linearGradient>
  </defs>
  <rect id="Rectangle_1009" data-name="Rectangle 1009" width="172.631" height="56.167" rx="10" fill="#ebf5fe"/>
  <g id="Group_3199" data-name="Group 3199" transform="translate(12.39 12.39)">
    <text id="Download_on_Apple_App_Store" data-name="Download on
Apple App Store" transform="translate(42.125 12)" font-size="11" font-family="BRFirma-SemiBold, BR Firma" font-weight="600" letter-spacing="-0.02em"><tspan x="0" y="0">Download on</tspan><tspan x="0" y="14">Apple App Store</tspan></text>
    <g id="app-store" transform="translate(0 0.826)">
      <path id="Path_5682" data-name="Path 5682" d="M24.19.032H6.123A6.121,6.121,0,0,0,0,6.155v18.07a6.12,6.12,0,0,0,6.123,6.119h18.07a6.123,6.123,0,0,0,6.123-6.123V6.155A6.126,6.126,0,0,0,24.19.032Z" transform="translate(0 -0.032)" fill="url(#linear-gradient)"/>
      <g id="Group_3202" data-name="Group 3202" transform="translate(4.039 5.208)">
        <path id="Path_5683" data-name="Path 5683" d="M79.2,89.739l.614-1.061a1.382,1.382,0,0,1,2.395,1.379L76.3,100.3h4.278a1.893,1.893,0,0,1,1.561,2.758H69.6a1.379,1.379,0,0,1,0-2.758h3.516l4.5-7.8-1.406-2.44A1.382,1.382,0,1,1,78.6,88.674Z" transform="translate(-68.216 -87.982)" fill="#fff"/>
        <path id="Path_5684" data-name="Path 5684" d="M101.9,351.726l-1.326,2.3a1.382,1.382,0,1,1-2.395-1.379l.985-1.705A2.361,2.361,0,0,1,101.9,351.726Z" transform="translate(-96.235 -335.233)" fill="#fff"/>
        <path id="Path_5685" data-name="Path 5685" d="M275.447,184.383h3.588a1.379,1.379,0,1,1,0,2.758h-1.993l1.345,2.334a1.382,1.382,0,0,1-2.395,1.379q-3.4-5.894-5.1-8.829a3.816,3.816,0,0,1,.485-4.672Q272.739,179.684,275.447,184.383Z" transform="translate(-258.358 -172.062)" fill="#fff"/>
      </g>
    </g>
  </g>
</svg>
