<svg id="Group_5926" data-name="Group 5926" xmlns="http://www.w3.org/2000/svg" xmlns:xlink="http://www.w3.org/1999/xlink" width="172.631" height="56.167" viewBox="0 0 172.631 56.167">
  <defs>
    <linearGradient id="linear-gradient" x1="-0.423" y1="0.75" x2="0.529" y2="0.25" gradientUnits="objectBoundingBox">
      <stop offset="0" stop-color="#00e2ff"/>
      <stop offset="1" stop-color="#00c5ff"/>
    </linearGradient>
  </defs>
  <rect id="Rectangle_1009" data-name="Rectangle 1009" width="172.631" height="56.167" rx="10" fill="#ebf5fe"/>
  <g id="Group_3199" data-name="Group 3199" transform="translate(14.146 12.39)">
    <text id="Download_on_Google_Playstore" data-name="Download on
Google Playstore" transform="translate(40.369 12)" font-size="11" font-family="BRFirma-SemiBold, BR Firma" font-weight="600" letter-spacing="-0.02em"><tspan x="0" y="0">Download on</tspan><tspan x="0" y="14">Google Playstore</tspan></text>
    <g id="_x34_2.Google_PLay" transform="translate(0 0.537)">
      <path id="Path_5678" data-name="Path 5678" d="M64.91,39.142l-5.133-2.965-5.255,5.255,5.255,5.255,5.151-2.975a2.668,2.668,0,0,0-.017-4.571Z" transform="translate(-39.406 -26.258)" fill="#ffce00"/>
      <path id="Path_5679" data-name="Path 5679" d="M29.745,26.414,15.43,12a2.7,2.7,0,0,0-.8,1.92V38.867a2.7,2.7,0,0,0,.8,1.921Z" transform="translate(-14.63 -11.24)" fill="url(#linear-gradient)"/>
      <path id="Path_5680" data-name="Path 5680" d="M31.057,25.174l5.255-5.255.008-.008-7.042-4.054L20,10.4a2.633,2.633,0,0,0-2.7-.053,4.011,4.011,0,0,0-.551.409Z" transform="translate(-15.942 -10)" fill="#00f076"/>
      <path id="Path_5681" data-name="Path 5681" d="M16.742,64.421a4.011,4.011,0,0,0,.551.409,2.761,2.761,0,0,0,1.316.356,2.71,2.71,0,0,0,1.369-.391l9.3-5.429,7.042-4.054-.008-.008-5.255-5.255Z" transform="translate(-15.942 -34.873)" fill="#f63448"/>
    </g>
  </g>
</svg>
