<svg id="feather_Logo" data-name="feather Logo" xmlns="http://www.w3.org/2000/svg" width="115.02" height="35.012" viewBox="0 0 115.02 35.012">
  <text id="Feather" transform="translate(73.02 24.123)" fill="#101026" font-size="26" font-family="GTWalsheimPro-Medium, GT Walsheim Pro" font-weight="500" letter-spacing="-0.02em"><tspan x="-41.405" y="0">feather</tspan></text>
  <g id="Group_5829" data-name="Group 5829" transform="translate(0 0)">
    <path id="Path_6707" data-name="Path 6707" d="M208.522,256.394c1.121-.7,1.095-1.879,2.64-3.577.068-.074.082-.082.139-.148l.409-.464c.216-.216.353-.374.594-.6.211-.2.378-.359.6-.561a21.855,21.855,0,0,1,1.988-1.572c3.246-2.387,4.716-2.832,7.782-4.393a32.358,32.358,0,0,0,5.081-3.025,6.816,6.816,0,0,0,3.061-7.419c-.676.193-1.4.457-2.046.693-2.049.746-3.922,1.47-5.887,2.4a36.979,36.979,0,0,0-7.268,4.4l-1.114.958a18.667,18.667,0,0,0-3.756,4.53A16.484,16.484,0,0,0,208.522,256.394Z" transform="translate(-208.51 -234.63)" fill="#101026" fill-rule="evenodd"/>
    <path id="Path_6708" data-name="Path 6708" d="M216.424,287.405a14.631,14.631,0,0,1,1.69-1.906,24.187,24.187,0,0,1,3.053-2.361,21.18,21.18,0,0,1,2.251-1.338c.079-.1.015-.049.167-.133l.372-.206a1.3,1.3,0,0,1,.184-.1c.317-.222.949-.529,1.308-.739.838-.492,1.789-.976,2.658-1.489a18.532,18.532,0,0,0,4.731-3.558,6.118,6.118,0,0,0,.962-6.15c-1.057.342-5.954,2.629-6.741,3.026a50.893,50.893,0,0,0-6.193,3.583l-1.408,1.026c-.458.381-.868.723-1.321,1.116a15.5,15.5,0,0,0-2.323,2.584,8.728,8.728,0,0,0-1.743,5.6c.057,1.391.14,2.456.5,2.715C214.9,289.319,215.451,288.882,216.424,287.405Z" transform="translate(-212.525 -259.792)" fill="#101026" fill-rule="evenodd"/>
    <path id="Path_6709" data-name="Path 6709" d="M227.216,338.354a12.6,12.6,0,0,1-.116-2.588,12.033,12.033,0,0,1,1.926-5.686c.167-.271.3-.346.23-.419l-.218.1a16.5,16.5,0,0,0-2.121,1.153,7.636,7.636,0,0,0-1.323,1.038,3.91,3.91,0,0,0-.562.639,2.985,2.985,0,0,0-.623,1.756c0,1.7,1.463,2.916,2.568,3.847.031.026.084.076.119.1Z" transform="translate(-220.005 -303.341)" fill="#101026" fill-rule="evenodd"/>
  </g>
</svg>
