<svg xmlns="http://www.w3.org/2000/svg" width="2671.213" height="1109.165" viewBox="0 0 2671.213 1109.165">
  <g id="Group_7101" data-name="Group 7101" transform="translate(-89.572 -294.178)" opacity="0.5" style="mix-blend-mode: multiply;isolation: isolate">
    <path id="Path_7447" data-name="Path 7447" d="M89.94,785.626A2233.143,2233.143,0,0,1,286.7,597.138c31.254-26.53,64.321-52.932,105.754-68.728,105.91-40.381,232.564-1.178,332.336,47.871,91.893,45.175,176.9,98.951,252.624,159.816,75.046,60.317,142.381,128.467,233.3,173.419s215.716,61.572,303.573,13.028c52.276-28.883,83.749-76.818,95.657-126.065s6.063-100.074-4.131-149.554c-11.67-56.655-28.8-115.755-5.966-170.28,23.633-56.444,92-99.679,167.4-105.863,107.265-8.8,201.567,49.725,291.96,95.818,114.839,58.561,248.291,102.149,385.08,95.99s275-71.73,316.031-174.172" transform="translate(0 155.585)" fill="none" stroke="#fff" stroke-miterlimit="10" stroke-width="1"/>
    <path id="Path_7448" data-name="Path 7448" d="M93.568,804.318A2070.075,2070.075,0,0,1,287.623,619.553c30.915-25.9,63.622-51.61,104.336-67.156,81.785-31.221,175.954-15.35,260.363,15.381,23.008,8.365,45.287,17.831,66.4,27.745,90.8,42.685,175.088,93.927,250.508,152.225,74.726,57.772,141.783,123.67,231.755,166.96,50.441,24.269,110.213,40.889,169.078,43.878,51.276,2.585,102.146-5.415,144.676-28.207a200.318,200.318,0,0,0,21.56-13.352c41.738-29.7,67.085-72.409,78.185-116.146a261.578,261.578,0,0,0,6.973-42.431c3.116-37.107-.539-74.664-5.978-111.352-8.535-58.209-19.92-117.832,5.779-172.242,25.523-54.036,91.077-96.054,164.678-102.384,104.719-9.008,197.12,46.139,285.519,89q10.454,5.067,21.1,9.953c107.3,49.2,228.741,83.32,352.108,75.49C2576.2,538.574,2708.1,473.346,2746.2,373.229" transform="translate(10.537 158.883)" fill="none" stroke="#f9f9f9" stroke-miterlimit="10" stroke-width="1"/>
    <path id="Path_7449" data-name="Path 7449" d="M97.2,833.146A1920.879,1920.879,0,0,1,288.541,652.1c30.579-25.266,62.919-50.291,102.919-65.583,80.325-30.706,172.6-16.393,255.674,12.343,22.665,7.817,44.643,16.7,65.519,26.037,89.707,40.191,173.284,88.9,248.392,144.631,74.409,55.223,141.237,118.814,230.209,160.5,52.365,24.532,113.7,41.859,174.357,45.591,52.717,3.213,105.473-4.32,149.58-27.273a203.077,203.077,0,0,0,22.431-13.542c43.483-30.269,69.451-74.285,81.4-119.393a287.311,287.311,0,0,0,7.855-43.655c3.986-38.129,1.776-76.757-1.73-114.35-5.4-59.77-11.139-119.833,17.523-174.206,27.217-51.622,90.156-92.428,161.961-98.905,102.177-9.222,192.672,42.553,279.076,82.169q10.214,4.686,20.615,9.188c104.77,45.331,222.292,75.594,340.726,65.715,126.264-10.519,251.855-75.4,287.037-173.193" transform="translate(21.074 152.048)" fill="none" stroke="#f4f4f4" stroke-miterlimit="10" stroke-width="1"/>
    <path id="Path_7450" data-name="Path 7450" d="M100.824,863.139A1784.362,1784.362,0,0,1,289.46,685.825c30.239-24.639,62.216-48.972,101.5-64.013,78.86-30.189,169.254-17.434,250.981,9.307,22.325,7.267,44.006,15.573,64.641,24.327,88.614,37.7,171.476,83.877,246.276,137.037,74.089,52.681,140.737,113.913,228.667,154.043,54.3,24.783,117.174,42.829,179.628,47.3,54.161,3.837,108.8-3.228,154.488-26.343a206.782,206.782,0,0,0,23.305-13.728c45.224-30.838,71.809-76.163,84.612-122.642a315.938,315.938,0,0,0,8.734-44.878c4.861-39.151,4.092-78.847,2.518-117.352-2.268-61.327-2.471-121.764,29.271-176.167,28.713-49.208,89.23-88.8,159.24-95.427,99.636-9.433,188.226,38.967,272.63,75.346q9.986,4.3,20.131,8.42c102.244,41.467,215.841,67.869,329.345,55.939,121-12.7,240.283-77.237,272.544-172.707" transform="translate(31.611 144.044)" fill="none" stroke="#eee" stroke-miterlimit="10" stroke-width="1"/>
    <path id="Path_7451" data-name="Path 7451" d="M104.452,893.133c56.278-61.541,118.623-119.567,185.926-173.594,29.9-24.006,61.517-47.651,100.088-62.441,77.4-29.672,165.9-18.471,246.288,6.269,21.982,6.722,43.362,14.448,63.758,22.623,87.52,35.207,169.672,78.85,244.164,129.444,73.769,50.132,140.276,108.962,227.117,147.584,56.258,25.022,120.657,43.8,184.907,49.018,55.6,4.464,112.13-2.139,159.392-25.413a210.05,210.05,0,0,0,24.176-13.915c46.966-31.407,74.175-78.042,87.829-125.891a346.734,346.734,0,0,0,9.613-46.1c5.731-40.176,6.407-80.939,6.766-120.35.867-62.884,6.083-123.649,41.016-178.128,30.021-46.812,88.309-85.18,156.522-91.951,97.094-9.647,183.778,35.381,266.188,68.52q9.745,3.919,19.643,7.655c99.718,37.6,209.391,60.143,317.964,46.164,115.745-14.876,228.71-79.076,258.048-172.217" transform="translate(42.148 136.042)" fill="none" stroke="#e9e9e9" stroke-miterlimit="10" stroke-width="1"/>
    <path id="Path_7452" data-name="Path 7452" d="M108.081,923.124C163.25,862.657,224.743,805.87,291.293,753.257c29.564-23.375,60.815-46.332,98.671-60.868,75.936-29.158,162.547-19.514,241.595,3.231,21.642,6.174,42.722,13.322,62.876,20.913,86.431,32.714,167.868,73.826,242.051,121.853,73.449,47.586,139.862,103.966,225.571,141.122,58.234,25.245,124.139,44.768,190.186,50.735,57.043,5.088,115.456-1.046,164.3-24.483a213.8,213.8,0,0,0,25.05-14.1c48.707-31.976,76.534-79.92,91.042-129.14a382.283,382.283,0,0,0,10.495-47.326c6.6-41.2,8.613-83.035,11.01-123.349,3.834-64.451,14.509-125.5,52.764-180.092,31.137-44.438,87.384-81.554,153.8-88.472,94.552-9.858,179.331,31.8,259.746,61.7q9.505,3.534,19.155,6.887c97.192,33.738,202.945,52.417,306.587,36.388,110.478-17.054,217.134-80.912,243.547-171.727" transform="translate(52.688 128.041)" fill="none" stroke="#e3e3e3" stroke-miterlimit="10" stroke-width="1"/>
    <path id="Path_7453" data-name="Path 7453" d="M111.709,953.118c54.06-59.39,114.7-114.941,180.5-166.144,29.224-22.745,60.112-45.01,97.254-59.3,74.472-28.638,159.2-20.554,236.905.2,21.3,5.627,42.077,12.193,61.994,19.205A1263.111,1263.111,0,0,1,928.3,861.335c73.133,45.041,139.48,98.933,224.029,134.666,60.221,25.453,127.618,45.738,195.456,52.445,58.492,5.716,118.787.049,169.2-23.55a217.264,217.264,0,0,0,25.921-14.289c50.452-32.548,78.9-81.8,94.255-132.387a419.994,419.994,0,0,0,11.377-48.553c7.469-42.22,10.921-85.131,15.258-126.35,6.95-66.014,22.8-127.329,64.508-182.054,32.082-42.1,86.462-77.929,151.083-84.993,92.01-10.072,174.885,28.21,253.3,54.871q9.276,3.153,18.671,6.122c94.665,29.877,196.5,44.692,295.206,26.613,105.219-19.236,205.561-82.748,229.049-171.241" transform="translate(63.225 120.037)" fill="none" stroke="#dedede" stroke-miterlimit="10" stroke-width="1"/>
    <path id="Path_7454" data-name="Path 7454" d="M115.337,983.112c52.951-58.319,112.747-112.631,177.793-162.42,28.888-22.115,59.413-43.691,95.837-57.723,73.012-28.124,155.843-21.6,232.212-2.846,20.959,5.079,41.437,11.067,61.115,17.5A1247.212,1247.212,0,0,1,920.113,884.286c72.813,42.495,139.128,93.86,222.482,128.207,62.224,25.643,131.1,46.705,200.735,54.158,59.932,6.343,122.113,1.141,174.108-22.62a221.125,221.125,0,0,0,26.8-14.475c52.194-33.117,81.258-83.678,97.469-135.636a461.192,461.192,0,0,0,12.256-49.78c8.344-43.242,13.228-87.227,19.506-129.346,10.077-67.578,30.954-129.165,76.252-184.018,32.867-39.793,85.537-74.3,148.366-81.514,89.469-10.287,170.438,24.624,246.858,48.048q9.037,2.767,18.182,5.354c92.14,26.013,190.045,36.967,283.825,16.837,99.956-21.414,193.989-84.583,214.553-170.751" transform="translate(73.762 112.035)" fill="none" stroke="#d8d8d8" stroke-miterlimit="10" stroke-width="1"/>
    <path id="Path_7455" data-name="Path 7455" d="M118.965,1013.1c51.846-57.246,110.79-110.321,175.087-158.693,28.545-21.488,58.706-42.373,94.415-56.153,71.552-27.607,152.45-22.513,227.523-5.881,20.6,4.565,40.8,9.938,60.233,15.791a1231.363,1231.363,0,0,1,235.7,99.068c72.492,39.95,138.8,88.75,220.937,121.751,64.247,25.811,134.584,47.675,206.014,55.872,61.373,6.967,125.444,2.233,179.012-21.69a224.4,224.4,0,0,0,27.666-14.662c53.935-33.686,83.624-85.553,100.686-138.885a507.9,507.9,0,0,0,13.134-51c9.214-44.264,15.539-89.323,23.754-132.344,13.2-69.144,38.962-131.019,88-185.982,33.492-37.539,84.612-70.677,145.645-78.039,86.927-10.495,165.99,21.041,240.411,41.225q8.809,2.387,17.7,4.589c89.613,22.149,183.6,29.241,272.443,7.062,94.7-23.593,182.416-86.422,200.06-170.265" transform="translate(84.299 104.032)" fill="none" stroke="#d2d2d2" stroke-miterlimit="10" stroke-width="1"/>
    <path id="Path_7456" data-name="Path 7456" d="M122.593,1043.1c50.737-56.172,108.83-108.008,172.378-154.97,28.205-20.854,58-41.051,93-54.581,70.087-27.09,149.1-23.544,222.83-8.916,20.268,4.02,40.156,8.809,59.354,14.081A1215.769,1215.769,0,0,1,903.74,930.187c72.176,37.4,138.5,83.607,219.39,115.29,66.284,25.961,138.066,48.648,211.293,57.585,62.813,7.594,128.77,3.329,183.915-20.757a228.317,228.317,0,0,0,28.541-14.848c55.676-34.256,85.982-87.432,103.9-142.135,5.669-17.369,10.159-34.9,14.013-52.228,10.085-45.286,17.855-91.419,28-135.346,16.336-70.7,46.821-132.916,99.745-187.943,33.988-35.336,83.69-67.052,142.927-74.56,84.381-10.709,161.543,17.455,233.969,34.4q8.569,2,17.211,3.821c87.087,18.284,177.149,21.515,261.062-2.714,89.437-25.771,170.843-88.258,185.563-169.775" transform="translate(94.836 96.03)" fill="none" stroke="#cdcdcd" stroke-miterlimit="10" stroke-width="1"/>
    <path id="Path_7457" data-name="Path 7457" d="M126.221,1073.09c49.628-55.1,106.874-105.7,169.668-151.246,27.865-20.224,57.3-39.732,91.581-53.008,68.627-26.576,145.75-24.578,218.141-11.957,19.924,3.476,39.512,7.686,58.472,12.373a1200.349,1200.349,0,0,1,231.474,83.886c71.852,34.855,138.219,78.434,217.844,108.831,68.334,26.089,141.545,49.618,216.564,59.3,64.258,8.218,132.1,4.421,188.823-19.827a231.958,231.958,0,0,0,29.412-15.035c57.422-34.828,88.348-89.31,107.113-145.384,5.938-17.782,10.709-35.736,14.9-53.452,10.952-46.31,20.166-93.511,32.247-138.344,19.475-72.268,54.524-134.877,111.489-189.908,34.358-33.188,82.768-63.423,140.21-71.081,81.839-10.92,157.1,13.866,227.527,27.576q8.328,1.62,16.719,3.057c84.565,14.42,170.7,13.79,249.684-12.489,84.174-27.953,159.267-90.094,171.066-169.286" transform="translate(105.373 88.028)" fill="none" stroke="#c7c7c7" stroke-miterlimit="10" stroke-width="1"/>
    <path id="Path_7458" data-name="Path 7458" d="M129.849,1103.083c48.523-54.027,104.918-103.385,166.959-147.523,27.53-19.594,56.6-38.41,90.164-51.435,67.167-26.059,142.4-25.615,213.448-14.992,19.588,2.928,38.872,6.557,57.593,10.666a1184.872,1184.872,0,0,1,229.358,76.289c71.536,32.31,137.961,73.232,216.3,102.375,70.4,26.19,145.028,50.584,221.842,61.012,65.7,8.845,135.427,5.513,193.727-18.9a236.353,236.353,0,0,0,30.286-15.222c59.163-35.4,90.706-91.189,110.326-148.633,6.2-18.2,11.256-36.572,15.777-54.675,11.826-47.332,22.485-95.607,36.494-141.345,22.614-73.829,62.072-136.924,123.237-191.869,34.624-31.1,81.843-59.8,137.488-67.6,79.3-11.134,152.649,10.284,221.081,20.754q8.1,1.235,16.234,2.289c82.039,10.559,164.253,6.064,238.3-22.265,78.915-30.131,147.694-91.929,156.569-168.8" transform="translate(115.91 80.025)" fill="none" stroke="#c2c2c2" stroke-miterlimit="10" stroke-width="1"/>
    <path id="Path_7459" data-name="Path 7459" d="M133.477,1133.078c47.415-52.953,102.958-101.075,164.249-143.8,27.19-18.964,55.9-37.092,88.75-49.863,65.7-25.542,139.058-26.655,208.755-18.03,19.245,2.38,38.228,5.428,56.711,8.956a1169.045,1169.045,0,0,1,227.242,68.7c71.216,29.764,137.715,68,214.752,95.916,72.484,26.264,148.51,51.555,227.121,62.726,67.139,9.469,138.754,6.606,198.631-17.963a240.51,240.51,0,0,0,31.157-15.411c60.9-35.966,93.072-93.068,113.543-151.88,6.462-18.615,11.8-37.407,16.656-55.9,12.7-48.354,24.918-97.675,40.743-144.344,25.941-75.352,69.455-139.087,134.982-193.83,34.8-29.079,80.922-56.175,134.771-64.127,76.756-11.345,148.2,6.694,214.639,13.927q7.859.853,15.746,1.523c79.513,6.695,157.807-1.664,226.926-32.04,73.648-32.31,136.118-93.768,142.068-168.31" transform="translate(126.448 72.023)" fill="none" stroke="#bcbcbc" stroke-miterlimit="10" stroke-width="1"/>
    <path id="Path_7460" data-name="Path 7460" d="M137.1,1163.071c46.31-51.879,101-98.761,161.539-140.076,26.85-18.33,55.2-35.77,87.333-48.29,64.239-25.025,135.712-27.7,204.062-21.065,18.909,1.833,37.591,4.3,55.832,7.248A1153.668,1153.668,0,0,1,871,1021.989c70.9,27.218,137.485,62.747,213.21,89.457,74.582,26.313,151.989,52.525,232.4,64.439,68.58,10.1,142.08,7.7,203.535-17.033a244.116,244.116,0,0,0,32.031-15.595c62.646-36.538,95.431-94.946,116.752-155.129,6.731-19.028,12.354-38.242,17.539-57.126,13.568-49.379,27.233-99.768,44.99-147.342,29.076-76.91,76.682-141.388,146.726-195.794,34.913-27.117,80-52.549,132.054-60.648,74.214-11.559,143.755,3.109,208.2,7.1q7.626.468,15.258.756c76.986,2.83,151.356-9.39,215.544-41.816,68.389-34.488,124.546-95.6,127.575-167.823" transform="translate(136.985 64.019)" fill="none" stroke="#b7b7b7" stroke-miterlimit="10" stroke-width="1"/>
    <path id="Path_7461" data-name="Path 7461" d="M140.733,1193.062c45.2-50.805,99.046-96.449,158.83-136.349,26.515-17.7,54.5-34.451,85.916-46.72,62.778-24.508,132.366-28.739,199.373-24.1,18.565,1.285,36.947,3.176,54.95,5.541a1138.465,1138.465,0,0,1,223.01,53.51c70.579,24.673,137.266,57.463,211.663,83,76.7,26.328,155.476,53.494,237.671,66.152,70.025,10.724,145.41,8.793,208.442-16.1a248.318,248.318,0,0,0,32.9-15.785c64.391-37.107,97.8-96.825,119.969-158.378,6.993-19.444,12.9-39.078,18.417-58.35,14.439-50.4,29.548-101.861,49.238-150.344,32.207-78.467,83.749-143.848,158.474-197.756,34.96-25.221,79.071-48.923,129.332-57.169,71.673-11.77,139.312-.477,201.75.278q7.391.087,14.774-.009c74.46-1.034,144.906-17.116,204.163-51.594,63.13-36.663,112.973-97.437,113.078-167.331" transform="translate(147.522 56.018)" fill="none" stroke="#b1b1b1" stroke-miterlimit="10" stroke-width="1"/>
    <path id="Path_7462" data-name="Path 7462" d="M144.361,1223.056c44.092-49.734,97.086-94.138,156.12-132.625,26.175-17.073,53.794-33.133,84.5-45.148,61.314-23.993,129.024-29.792,194.68-27.142,18.229.734,36.307,2.047,54.072,3.834a1122.809,1122.809,0,0,1,220.894,45.916c70.259,22.124,137.059,52.154,210.118,76.54,78.829,26.307,158.958,54.464,242.949,67.865,71.466,11.348,148.737,9.886,213.347-15.17a252.02,252.02,0,0,0,33.777-15.971c66.132-37.676,100.155-98.7,123.183-161.628,7.254-19.857,13.446-39.91,19.3-59.574,15.309-51.426,31.86-103.954,53.482-153.342,35.342-80.024,90.659-146.5,170.219-199.72,34.971-23.391,78.15-45.3,126.615-53.69,69.131-11.985,134.865-4.063,195.308-6.545q7.156-.3,14.286-.777c71.934-4.9,138.461-24.841,192.782-61.37,57.867-38.845,101.4-99.276,98.582-166.841" transform="translate(158.059 48.016)" fill="none" stroke="#ababab" stroke-miterlimit="10" stroke-width="1"/>
    <path id="Path_7463" data-name="Path 7463" d="M147.989,1253.049c42.987-48.66,95.13-91.825,153.41-128.9,25.835-16.439,53.1-31.811,83.081-43.575,59.854-23.476,125.678-30.841,189.99-30.177,17.89.183,35.663.918,53.189,2.123a1107.327,1107.327,0,0,1,218.781,38.322c69.939,19.582,136.852,46.831,208.567,70.081,80.977,26.255,162.441,55.434,248.228,69.582,72.906,11.972,152.067,10.978,218.25-14.24a255.978,255.978,0,0,0,34.648-16.158c67.874-38.245,102.521-100.582,126.4-164.877,7.52-20.273,13.994-40.745,20.178-60.8,16.18-52.445,34.175-106.043,57.73-156.341,38.477-81.582,97.422-149.374,181.963-201.681,34.964-21.629,77.229-41.672,123.9-50.212,66.589-12.2,130.417-7.649,188.866-13.371q6.916-.679,13.8-1.542c69.408-8.76,132.01-32.567,181.4-71.145,52.607-41.023,89.828-101.111,84.084-166.355" transform="translate(168.596 40.012)" fill="none" stroke="#a6a6a6" stroke-miterlimit="10" stroke-width="1"/>
    <path id="Path_7464" data-name="Path 7464" d="M151.617,1283.041c41.878-47.583,93.174-89.512,150.7-125.175,25.5-15.812,52.393-30.492,81.664-42,58.394-22.963,122.332-31.9,185.3-33.218,17.55-.367,35.022-.208,52.311.419a1091.451,1091.451,0,0,1,216.665,30.728c69.619,17.033,136.657,41.479,207.026,63.622,83.136,26.163,165.92,56.4,253.5,71.292,74.351,12.6,155.4,12.073,223.158-13.306a259.752,259.752,0,0,0,35.522-16.347c69.615-38.814,104.879-102.458,129.609-168.12,7.785-20.689,14.544-41.583,21.06-62.028,17.05-53.467,36.49-108.136,61.978-159.339,41.613-83.142,104.043-152.492,193.711-203.645,34.941-19.933,76.3-38.046,121.176-46.733,64.043-12.41,125.971-11.235,182.419-20.194q6.683-1.065,13.314-2.31c66.882-12.624,125.561-40.292,170.02-80.921,47.344-43.2,78.255-102.947,69.588-165.865" transform="translate(179.133 32.011)" fill="none" stroke="#a0a0a0" stroke-miterlimit="10" stroke-width="1"/>
    <path id="Path_7465" data-name="Path 7465" d="M155.246,1313.037c40.769-46.512,91.21-87.2,147.991-121.455,25.156-15.179,51.686-29.17,80.243-40.43,56.93-22.445,118.978-33.041,180.608-36.253,17.207-.942,34.382-1.334,51.428-1.291,72.223.312,144.4,8.494,214.549,23.137,69.3,14.487,136.469,36.11,205.479,57.163,85.314,26.028,169.4,57.374,258.778,73.006,75.792,13.227,158.724,13.165,228.062-12.376A263.6,263.6,0,0,0,1558.777,1238c71.36-39.383,107.245-104.336,132.826-171.369,8.047-21.105,15.09-42.416,21.939-63.252,17.921-54.492,38.806-110.229,66.226-162.337,44.744-84.7,110.548-155.876,205.456-205.61,34.937-18.306,75.382-34.421,118.459-43.254,61.5-12.624,121.523-14.821,175.978-27.019q6.448-1.446,12.826-3.075c64.355-16.488,119.11-48.018,158.642-90.7,42.081-45.38,66.675-104.783,55.091-165.379" transform="translate(189.673 24.007)" fill="none" stroke="#9b9b9b" stroke-miterlimit="10" stroke-width="1"/>
    <path id="Path_7466" data-name="Path 7466" d="M158.873,1343.028c39.664-45.438,89.258-84.889,145.285-117.728a571.481,571.481,0,0,1,78.825-38.86c55.469-21.925,115.628-34.081,175.915-39.289q25.3-2.235,50.55-3c71.13-2.181,142.587,3.467,212.433,15.54,68.983,11.942,136.278,30.722,203.933,50.707,87.509,25.848,172.885,58.341,264.056,74.719,77.232,13.851,162.051,14.258,232.966-11.446a267.784,267.784,0,0,0,37.267-16.721c73.1-39.953,109.6-106.215,136.04-174.619,8.312-21.518,15.633-43.251,22.817-64.475,18.8-55.514,41.12-112.322,70.474-165.339,47.879-86.257,116.955-159.544,217.2-207.568a532.516,532.516,0,0,1,115.737-39.778c58.96-12.835,117.077-18.407,169.536-33.843q6.208-1.831,12.338-3.843c61.83-20.352,112.665-55.743,147.261-100.472,36.822-47.562,55.1-106.622,40.594-164.889" transform="translate(200.207 16.005)" fill="none" stroke="#959595" stroke-miterlimit="10" stroke-width="1"/>
    <path id="Path_7467" data-name="Path 7467" d="M162.5,1373.022c38.552-44.367,87.3-82.582,142.572-114.008a616.1,616.1,0,0,1,77.412-37.284c54.005-21.411,112.274-35.124,171.222-42.33q24.785-3.057,49.668-4.706c70.037-4.672,140.784-1.557,210.316,7.949,68.666,9.4,136.091,25.315,202.387,44.245,89.719,25.621,176.368,59.314,269.335,76.432,78.677,14.478,165.377,15.35,237.87-10.513a271.517,271.517,0,0,0,38.138-16.907c74.843-40.522,111.97-108.093,139.257-177.868,8.574-21.931,16.179-44.086,23.7-65.7C1744.04,975.8,1767.81,917.919,1799.1,864c51.014-87.817,123.284-163.525,228.948-209.532,35.011-15.246,73.531-27.173,113.02-36.3,56.418-13.046,112.629-21.99,163.089-40.666q5.98-2.212,11.853-4.608c59.3-24.214,106.214-63.469,135.88-110.247,31.559-49.74,43.53-108.458,26.1-164.4" transform="translate(210.747 8.004)" fill="none" stroke="#909090" stroke-miterlimit="10" stroke-width="1"/>
    <path id="Path_7468" data-name="Path 7468" d="M166.13,1403.015c87.013-100.6,230.428-167.089,382.386-191.361s311.534-8.592,457.834,31.728c91.944,25.34,179.847,60.284,274.606,78.146s201.372,16.473,281.79-26.677c100.643-54,134.209-155.986,167.048-248.04,54-151.381,140.366-312.354,319.659-382.832,89.3-35.106,193.829-43.9,278.315-85.688,117.143-57.937,175.6-179.891,136.1-283.936" transform="translate(221.284 0)" fill="none" stroke="#8a8a8a" stroke-miterlimit="10" stroke-width="1"/>
  </g>
</svg>
