<svg xmlns="http://www.w3.org/2000/svg" width="2264.775" height="801.72" viewBox="0 0 2264.775 801.72">
  <g id="Group_7102" data-name="Group 7102" transform="translate(0.427 0.063)" opacity="0.5" style="mix-blend-mode: multiply;isolation: isolate">
    <path id="Path_7469" data-name="Path 7469" d="M1999.8,66.287a2115.371,2115.371,0,0,0-197.346-144.4c-30.691-19.863-62.846-39.376-99.821-48.25-94.516-22.678-190.766,29.056-263.109,86.185-66.628,52.618-125.965,112.093-176.343,176.758-49.925,64.082-92.028,134.225-157.9,186.512s-164.937,83.432-246.227,51.056c-48.364-19.261-83.342-58.39-102.54-101.232s-24.154-89.412-25.286-135.33c-1.3-52.573,1.4-108.059-27.751-154.245-30.187-47.813-94.487-77.926-157.447-73.735-89.567,5.963-155.613,70.92-220.84,124.168C242.323,101.427,141.341,158,28.089,170.158S-210.977,141.121-264.232,54.1" transform="translate(264.232 180.637)" fill="none" stroke="#8a8a8a" stroke-miterlimit="10" stroke-width="1"/>
    <path id="Path_7470" data-name="Path 7470" d="M1995.132,71.329a1958.682,1958.682,0,0,0-194.5-141.4c-30.309-19.339-62.051-38.277-98.409-47.016-73.026-17.548-147.177,8.949-210.474,47.58A592.582,592.582,0,0,0,1442.637-35.9a1024.521,1024.521,0,0,0-176.15,169.64c-50.177,61.746-92.5,129.823-157.954,180.493-36.693,28.406-82.5,51.126-130.179,61.441-41.538,8.974-84.769,8.349-124-6.684a176.724,176.724,0,0,1-20.236-9.243c-39.908-21.363-68.877-56.571-86.363-94.557A271.666,271.666,0,0,1,733.9,227.854c-9.674-33.04-13.881-67.362-16.458-101.134-4.168-53.571-6.27-108.782-37.771-154.492-31.286-45.4-93.082-74.78-154.629-70.953C437.472-93.284,372.308-31.614,308.064,18.459q-7.594,5.921-15.387,11.7C214.155,88.4,121.154,134.881,18.525,143.8c-109.413,9.515-230.049-32.191-280.484-117.49" transform="translate(262.525 197.25)" fill="none" stroke="#909090" stroke-miterlimit="10" stroke-width="1"/>
    <path id="Path_7471" data-name="Path 7471" d="M1990.471,76.377A1817.065,1817.065,0,0,0,1798.807-62.014c-29.927-18.815-61.251-37.181-96.993-45.783-71.766-17.273-144.7,7.578-207.313,44.235-17.088,9.981-33.411,20.836-48.737,31.953A1007.645,1007.645,0,0,0,1269.8,130.913c-50.424,59.411-93.028,125.38-158,174.471-38.239,28.891-85.211,52.452-134.245,63.672-42.62,9.72-87.331,9.762-127.91-5.212a179.262,179.262,0,0,1-20.994-9.3c-41.468-21.649-71.213-57.959-89.668-97.069a299.049,299.049,0,0,1-14.819-38.328C713.577,185.3,707.978,150.2,703.639,115.86,696.6,61.291,689.783,6.413,655.839-38.881c-32.222-43-91.673-71.629-151.8-68.169-85.566,4.923-149.852,63.305-213.108,110.2Q283.445,8.7,275.782,14.1c-77.229,54.423-167.8,96.92-266.829,103.355C-96.618,124.324-212.07,82.11-259.687-1.473" transform="translate(260.817 213.857)" fill="none" stroke="#959595" stroke-miterlimit="10" stroke-width="1"/>
    <path id="Path_7472" data-name="Path 7472" d="M1985.81,88.768A1687.093,1687.093,0,0,0,1796.988-46.618c-29.545-18.291-60.454-36.082-95.579-44.549-70.5-17-142.223,6.2-204.15,40.89-16.921,9.443-33.118,19.735-48.367,30.3a991.268,991.268,0,0,0-175.771,155.4c-50.677,57.076-93.608,120.894-158.052,168.451-39.8,29.368-87.921,53.776-138.311,65.9-43.7,10.471-89.9,11.178-131.817-3.737a181.712,181.712,0,0,1-21.757-9.356c-43.029-21.938-73.548-59.347-92.976-99.581a328.231,328.231,0,0,1-15.78-39.318c-11.5-34.658-18.5-70.536-24.6-105.44-9.911-55.567-21.35-110.066-57.839-154.988-33-40.635-90.266-68.483-148.982-65.388-83.567,4.4-146.965,59.5-209.237,103.217q-7.362,5.168-14.9,10.2C182.934,55.994,94.794,94.5-.631,98.449c-101.725,4.225-211.986-38.5-256.784-120.364" transform="translate(259.108 223.121)" fill="none" stroke="#9b9b9b" stroke-miterlimit="10" stroke-width="1"/>
    <path id="Path_7473" data-name="Path 7473" d="M1981.146,105.065a1567.645,1567.645,0,0,0-185.977-132.38c-29.156-17.766-59.654-34.983-94.157-43.316-69.241-16.721-139.743,4.833-200.987,37.546-16.753,8.9-32.822,18.636-47.994,28.644a975.255,975.255,0,0,0-175.582,148.285c-50.93,54.74-94.232,116.374-158.1,162.429-41.379,29.839-90.641,55.1-142.383,68.125-44.791,11.226-92.463,12.6-135.735-2.26a184.217,184.217,0,0,1-22.521-9.412c-44.589-22.227-75.882-60.734-96.282-102.09a361.085,361.085,0,0,1-16.75-40.31c-12.419-35.465-20.807-72.12-28.67-107.594C663.216,56.167,647.261,2.074,608.118-42.5c-33.633-38.305-88.855-65.335-146.156-62.6C380.4-101.227,317.885-49.419,256.6-8.879Q249.35-4.085,241.944.563C167.3,47.369,81.593,81.887-10.221,83.351-108.1,84.929-213.17,41.7-255.142-38.451" transform="translate(257.399 228.479)" fill="none" stroke="#a0a0a0" stroke-miterlimit="10" stroke-width="1"/>
    <path id="Path_7474" data-name="Path 7474" d="M1976.485,121.365A1457.774,1457.774,0,0,0,1793.355-8.009c-28.773-17.242-58.853-33.884-92.741-42.082-67.975-16.446-137.261,3.462-197.815,34.2-16.589,8.369-32.532,17.539-47.627,26.993a959.683,959.683,0,0,0-175.39,141.167c-51.184,52.4-94.9,111.819-158.156,156.41-42.978,30.293-93.357,56.425-146.458,70.353-45.876,11.974-95.033,14.01-139.654-.791a186.974,186.974,0,0,1-23.282-9.465c-46.154-22.513-78.222-62.119-99.6-104.6a397.635,397.635,0,0,1-17.717-41.3c-13.338-36.276-23.031-73.723-32.75-109.747C646.634,55.534,626.137,1.893,584.222-42.359c-34.116-36.018-87.446-62.187-143.328-59.82C361.338-98.821,299.707-50.3,239.407-12.935Q232.276-8.516,225-4.247c-73.348,43-156.617,73.527-244.823,72.5-94.022-1.065-193.9-44.807-233.043-123.238" transform="translate(255.69 233.833)" fill="none" stroke="#a6a6a6" stroke-miterlimit="10" stroke-width="1"/>
    <path id="Path_7475" data-name="Path 7475" d="M1971.824,137.665A1357.007,1357.007,0,0,0,1791.542,11.3c-28.389-16.718-58.054-32.785-91.32-40.851-66.708-16.168-134.776,2.091-194.647,30.856-16.421,7.83-32.235,16.437-47.253,25.339a944.407,944.407,0,0,0-175.2,134.051c-51.439,50.064-95.6,107.229-158.207,150.385-44.595,30.739-96.082,57.751-150.542,72.582-46.963,12.726-97.606,15.425-143.574.684a189.288,189.288,0,0,1-24.051-9.521c-47.717-22.8-80.562-63.507-102.913-107.114a437.462,437.462,0,0,1-18.681-42.287c-14.258-37.086-25.343-75.316-36.835-111.9C629.912,54.923,605.1,1.711,560.3-42.211,525.841-76,474.266-101.249,419.8-99.25,342.255-96.412,281.51-51.176,222.2-16.989q-7.017,4.041-14.164,7.934C135.982,30.133,55.15,56.672-29.444,53.162-119.609,49.45-214.282,5.2-250.6-71.514" transform="translate(253.982 239.185)" fill="none" stroke="#ababab" stroke-miterlimit="10" stroke-width="1"/>
    <path id="Path_7476" data-name="Path 7476" d="M1967.161,153.971A1263.7,1263.7,0,0,0,1789.734,30.61c-28.006-16.194-57.251-31.686-89.9-39.618-65.44-15.891-132.29.721-191.474,27.512-16.253,7.292-31.942,15.338-46.883,23.685a929.827,929.827,0,0,0-175.012,126.933c-51.693,47.728-96.334,102.612-158.262,144.363-46.227,31.17-98.8,59.075-154.627,74.808-48.054,13.477-100.182,16.844-147.5,2.162a192.366,192.366,0,0,1-24.814-9.577c-49.285-23.088-82.91-64.892-106.233-109.626-7.412-14.239-13.848-28.779-19.654-43.276-15.176-37.893-27.656-76.905-40.92-114.056-21.286-59.6-50.3-112.4-98.1-155.978-34.677-31.611-84.621-55.89-137.668-54.258C323.151-94,263.3-52.051,204.97-21.041q-6.9,3.667-13.919,7.18C120.3,21.518,41.9,44.067-39.071,38.07c-86.3-6.356-175.769-51.112-209.254-126.111" transform="translate(252.272 244.535)" fill="none" stroke="#b1b1b1" stroke-miterlimit="10" stroke-width="1"/>
    <path id="Path_7477" data-name="Path 7477" d="M1962.5,177.445c-53.669-44.88-112.371-85.084-174.576-120.356-27.615-15.669-56.448-30.587-88.475-38.384-64.174-15.616-129.742-.547-188.3,24.164-16.072,6.785-31.648,14.242-46.512,22.033a915.928,915.928,0,0,0-174.827,119.814c-51.945,45.393-97.1,97.966-158.311,138.343-47.883,31.585-101.536,60.4-158.716,77.037-49.147,14.225-102.764,18.257-151.434,3.633A194.607,194.607,0,0,1,795.77,394.1c-50.855-23.376-85.259-66.28-109.559-112.138-7.713-14.579-14.465-29.46-20.621-44.266-16.1-38.7-29.976-78.5-45.016-116.206C596.406,60.88,563.309,8.447,512.389-34.74c-34.779-29.5-83.208-52.744-134.833-51.474-73.526,1.8-132.5,40.456-189.832,68.29q-6.784,3.289-13.675,6.426C104.594,20.07,28.645,38.633-48.711,30.149c-82.441-9-166.69-54.269-197.342-127.552" transform="translate(250.564 242.716)" fill="none" stroke="#b7b7b7" stroke-miterlimit="10" stroke-width="1"/>
    <path id="Path_7478" data-name="Path 7478" d="M1957.838,206.289c-52.58-44.058-110.374-83.253-171.72-117.353-27.231-15.142-55.648-29.488-87.054-37.148-62.9-15.341-127.252-1.912-185.118,20.819-15.9,6.249-31.354,13.14-46.141,20.379a902.394,902.394,0,0,0-174.637,112.7c-52.2,43.058-97.891,93.292-158.367,132.321-49.555,31.983-104.265,61.724-162.81,79.266-50.238,14.977-105.343,19.673-155.371,5.108a198.233,198.233,0,0,1-26.349-9.689c-52.423-23.665-87.606-67.668-112.887-114.647-8.011-14.921-15.081-30.144-21.592-45.258-17.021-39.511-32.3-80.082-49.11-118.359C579.621,72.812,542.553,20.691,488.4-22.053,453.618-49.5,406.6-71.646,356.4-70.743c-71.513,1.276-129.6,36.651-185.941,61.3q-6.67,2.914-13.428,5.674C88.874,23.993,15.368,38.566-58.363,27.6c-78.569-11.646-157.606-57.42-185.418-128.985" transform="translate(248.855 235.527)" fill="none" stroke="#bcbcbc" stroke-miterlimit="10" stroke-width="1"/>
    <path id="Path_7479" data-name="Path 7479" d="M1953.175,235.135C1901.689,191.9,1844.8,153.71,1784.318,120.787c-26.846-14.618-54.843-28.389-85.632-35.914-61.633-15.064-124.759-3.277-181.936,17.475-15.736,5.711-31.057,12.041-45.766,18.725a889.331,889.331,0,0,0-174.451,105.578c-52.454,40.722-98.71,88.594-158.42,126.3-51.248,32.362-107,63.05-166.913,81.489-51.329,15.731-107.928,21.094-159.31,6.586a201.158,201.158,0,0,1-27.118-9.742c-54-23.954-89.96-69.055-116.218-117.162-8.316-15.26-15.7-30.826-22.568-46.248-17.942-40.321-34.623-81.672-53.209-120.513-29.962-62.613-70.886-114.5-128.4-156.724C429.69-34.826,384-55.808,335.223-55.27c-69.5.757-126.694,32.844-182.051,54.32q-6.546,2.54-13.18,4.92C73.137,27.918,2.08,38.5-68.022,25.047c-74.7-14.293-148.513-60.577-173.486-130.423" transform="translate(247.146 228.336)" fill="none" stroke="#c2c2c2" stroke-miterlimit="10" stroke-width="1"/>
    <path id="Path_7480" data-name="Path 7480" d="M1948.514,263.982c-50.395-42.41-106.372-79.594-166-111.342-26.462-14.094-54.042-27.29-84.205-34.68-60.36-14.789-122.267-4.646-178.751,14.127-15.574,5.178-30.765,10.945-45.4,17.071A877.044,877.044,0,0,0,1299.9,247.621c-52.71,38.384-99.55,83.87-158.478,120.28-52.956,32.724-109.738,64.373-171.017,83.721-52.423,16.48-110.516,22.507-163.256,8.058a204.3,204.3,0,0,1-27.887-9.8c-55.565-24.243-92.313-70.443-119.553-119.674-8.614-15.6-16.323-31.5-23.538-47.238C617.306,241.84,599.217,199.71,578.855,160.3,545.994,96.689,501.322,44.929,440.334,3.332c-34.527-23.55-78.959-43.3-126.313-43.128-67.48.236-123.788,29.037-178.153,47.336q-6.431,2.162-12.935,4.166C57.38,31.845-11.225,38.442-77.7,22.5-148.523,5.561-217.108-41.231-239.236-109.364" transform="translate(245.438 221.143)" fill="none" stroke="#c7c7c7" stroke-miterlimit="10" stroke-width="1"/>
    <path id="Path_7481" data-name="Path 7481" d="M1943.853,292.825c-49.3-41.583-104.371-77.763-163.136-108.334-26.07-13.569-53.236-26.191-82.777-33.447-59.086-14.514-119.773-6.017-175.564,10.783-15.406,4.64-30.468,9.843-45.022,15.42a864.963,864.963,0,0,0-174.075,91.341c-52.967,36.049-100.411,79.123-158.532,114.26-54.688,33.057-112.482,65.7-175.129,85.944-53.52,17.231-113.107,23.926-167.2,9.535a207.494,207.494,0,0,1-28.658-9.855c-57.143-24.529-94.675-71.831-122.891-122.186-8.92-15.938-16.947-32.185-24.516-48.227-19.794-41.936-39.381-84.809-61.426-124.819-35.916-64.556-84.083-116.366-148.657-157.22-34.3-21.7-77.542-40.15-123.467-40.341C227.334-24.609,171.919.907,118.546,16.029q-6.312,1.787-12.686,3.412C41.606,35.769-24.548,38.377-87.385,19.949c-66.946-19.583-130.3-66.885-149.579-133.3" transform="translate(243.729 213.952)" fill="none" stroke="#cdcdcd" stroke-miterlimit="10" stroke-width="1"/>
    <path id="Path_7482" data-name="Path 7482" d="M1939.189,321.671c-48.206-40.761-102.364-75.933-160.267-105.328-25.684-13.045-52.429-25.092-81.348-32.213-57.815-14.237-117.28-7.387-172.377,7.438-15.24,4.1-30.173,8.744-44.65,13.763a853.969,853.969,0,0,0-173.887,84.226c-53.225,33.713-101.29,74.357-158.591,108.238-56.437,33.374-115.224,67.023-179.24,88.173-54.62,17.982-115.7,25.342-171.163,11.007a210.5,210.5,0,0,1-29.43-9.908C709.519,462.249,671.2,413.851,642,362.368c-9.219-16.278-17.568-32.867-25.488-49.214-20.721-42.749-41.717-86.4-65.541-126.975-38.823-65.554-90.532-117.5-158.8-157.467-34.026-19.92-76.123-37-120.619-37.56C208.109-9.655,153.581,12.572,101.2,24.515q-6.2,1.413-12.441,2.661C25.815,39.694-37.884,38.312-97.083,17.4-160.146-4.83-218.256-52.639-234.691-117.338" transform="translate(242.02 206.761)" fill="none" stroke="#d2d2d2" stroke-miterlimit="10" stroke-width="1"/>
    <path id="Path_7483" data-name="Path 7483" d="M1934.528,350.517c-47.111-39.937-100.358-74.1-157.4-102.323-25.3-12.521-51.625-23.993-79.921-30.983-56.539-13.959-114.785-8.761-169.181,4.1-15.075,3.563-29.878,7.645-44.278,12.109a843.311,843.311,0,0,0-173.7,77.107c-53.479,31.378-102.18,69.568-158.643,102.219-58.21,33.66-117.975,68.346-183.362,90.4-55.717,18.734-118.3,26.758-175.12,12.482a213.121,213.121,0,0,1-30.2-9.964c-60.3-25.106-99.4-74.6-129.584-127.208-9.523-16.62-18.187-33.551-26.465-50.207-21.646-43.557-44.052-87.982-69.661-129.128C495.279,132.566,440.122,80.312,368.05,41.4c-33.72-18.2-74.7-33.856-117.769-34.779C188.861,5.3,135.224,24.238,83.842,33q-6.083,1.035-12.192,1.9C10,43.622-51.239,38.25-106.8,14.848c-59.173-24.873-112.043-73.191-125.624-136.173" transform="translate(240.311 199.571)" fill="none" stroke="#d8d8d8" stroke-miterlimit="10" stroke-width="1"/>
    <path id="Path_7484" data-name="Path 7484" d="M1929.867,379.363c-46.016-39.113-98.351-72.274-154.527-99.317-24.912-12-50.817-22.894-78.489-29.749-55.265-13.684-112.29-10.141-165.989.749-14.909,3.025-29.583,6.546-43.905,10.457a833.04,833.04,0,0,0-173.517,69.992c-53.738,29.04-103.087,64.757-158.7,96.194-60,33.921-120.723,69.672-187.486,92.628-56.815,19.485-120.9,28.173-179.085,13.956a216.4,216.4,0,0,1-30.972-10.02c-61.882-25.392-101.766-75.989-132.935-129.72-9.829-16.959-18.813-34.232-27.446-51.2-22.572-44.367-46.39-89.566-73.783-131.281C478.388,144.506,419.875,91.754,343.9,54.093,310.508,37.54,270.624,23.388,228.987,22.1c-59.395-1.848-112.14,13.8-162.528,19.4q-5.963.66-11.946,1.149C-5.826,47.546-64.607,38.185-116.52,12.3-171.8-15.22-219.42-64.048-230.147-125.312" transform="translate(238.602 192.38)" fill="none" stroke="#dedede" stroke-miterlimit="10" stroke-width="1"/>
    <path id="Path_7485" data-name="Path 7485" d="M1925.2,408.209c-44.916-38.289-96.339-70.443-151.653-96.312-24.519-11.472-50.009-21.8-77.056-28.515-53.984-13.407-109.787-11.523-162.79-2.6-14.74,2.484-29.284,5.447-43.532,8.8a823.572,823.572,0,0,0-173.329,62.873c-54,26.7-104.009,59.93-158.76,90.172-61.821,34.151-123.481,71-191.618,94.857-57.915,20.236-123.5,29.589-183.056,15.431a219.751,219.751,0,0,1-31.747-10.076C688.2,517.165,647.529,465.47,615.372,410.615c-10.13-17.3-19.436-34.913-28.422-52.186-23.506-45.174-48.733-91.153-77.912-133.434-47.556-68.548-109.357-122.015-189.313-158.21C286.664,51.819,247.874,39.225,207.67,37.574,150.3,35.2,98.45,47.569,49.058,49.982q-5.849.282-11.7.4c-59.03,1.093-115.349-12.257-163.61-40.63-51.389-30.164-93.755-79.5-101.621-139.047" transform="translate(236.893 185.189)" fill="none" stroke="#e3e3e3" stroke-miterlimit="10" stroke-width="1"/>
    <path id="Path_7486" data-name="Path 7486" d="M1920.542,437.055c-43.819-37.467-94.324-68.615-148.777-93.306-24.132-10.948-49.2-20.7-75.625-27.282-52.7-13.132-107.285-12.908-159.585-5.941q-21.867,2.914-43.159,7.149A814.679,814.679,0,0,0,1320.25,373.43C1266,397.8,1215.312,428.512,1161.43,457.583c-63.656,34.344-126.236,72.322-195.749,97.083-59.02,20.988-126.115,31-187.031,16.906a222.807,222.807,0,0,1-32.522-10.132c-65.051-25.967-106.51-78.764-139.649-134.744-10.437-17.637-20.064-35.594-29.405-53.176C552.639,327.535,526,280.783,495.027,237.935c-50.473-69.549-115.494-123.967-199.5-158.459-32.735-13.443-70.428-24.411-109.2-26.429-55.342-2.891-106.3,6.188-154.693,5.425q-5.729-.093-11.451-.359C-37.541,55.4-91.4,38.058-136,7.2c-47.49-32.808-84.593-82.653-89.6-140.483" transform="translate(235.185 177.998)" fill="none" stroke="#e9e9e9" stroke-miterlimit="10" stroke-width="1"/>
    <path id="Path_7487" data-name="Path 7487" d="M1915.881,465.9c-42.72-36.643-92.312-66.784-145.9-90.3-23.745-10.424-48.393-19.6-74.19-26.048-51.426-12.857-104.793-14.374-156.384-9.288-14.415,1.379-28.693,3.249-42.786,5.5A806.324,806.324,0,0,0,1323.665,394.4c-54.512,22.031-105.876,50.218-158.879,78.131-65.52,34.507-129,73.648-199.892,99.312-60.126,21.736-128.722,32.421-191.012,18.38a226.33,226.33,0,0,1-33.3-10.188C673.949,553.777,631.7,499.88,597.572,442.777c-10.738-17.977-20.685-36.273-30.383-54.165C541.823,341.819,513.767,294.287,481,250.873,427.608,180.327,359.412,124.7,271.3,92.168c-32.432-11.977-69-21.265-106.339-23.648C111.649,65.107,61.585,70.9,14.19,66.958q-5.614-.467-11.2-1.11c-56.413-6.527-107.8-27.854-148.751-61.2-43.587-35.454-75.421-85.807-77.565-141.921" transform="translate(233.476 170.807)" fill="none" stroke="#eee" stroke-miterlimit="10" stroke-width="1"/>
    <path id="Path_7488" data-name="Path 7488" d="M1911.23,494.744c-41.617-35.816-90.293-64.954-143.016-87.293a495.59,495.59,0,0,0-72.753-24.815c-50.144-12.58-102.279-15.745-153.176-12.633-14.246.841-28.4,2.15-42.409,3.844A798.633,798.633,0,0,0,1327.1,415.366c-54.769,19.7-106.822,45.34-158.937,72.111C1100.754,522.1,1036.4,562.448,964.124,589.015,902.893,611.5,832.788,622.851,769.13,608.87a229.544,229.544,0,0,1-34.076-10.244c-68.227-26.544-111.263-81.537-146.383-139.765C577.628,440.542,567.36,421.9,557.306,403.7c-26.3-47.6-55.771-95.911-90.326-139.891-56.323-71.545-127.67-128.654-219.925-158.955A443.718,443.718,0,0,0,143.58,83.992C92.305,80.061,43.137,82.568-3.26,75.447q-5.494-.845-10.958-1.864C-69.319,63.245-118.238,37.929-155.526,2.1-195.205-36-221.769-86.865-221.043-141.26" transform="translate(231.754 163.616)" fill="none" stroke="#f4f4f4" stroke-miterlimit="10" stroke-width="1"/>
    <path id="Path_7489" data-name="Path 7489" d="M1906.893,523.59c-40.516-34.992-88.274-63.123-140.128-84.287a533.413,533.413,0,0,0-71.313-23.581c-48.863-12.3-99.761-17.119-149.961-15.978q-21.119.454-42.037,2.19c-58.89,4.859-116.86,16.83-172.589,34.4-55.029,17.36-107.77,40.442-158.993,66.089-69.318,34.709-134.531,76.3-208.184,103.767-62.334,23.239-133.95,35.252-198.979,21.33a232.974,232.974,0,0,1-34.85-10.3c-69.818-26.831-113.643-82.925-149.751-142.277-11.351-18.658-21.94-37.638-32.352-56.148-27.232-48.41-58.121-97.495-94.473-142.044-59.248-72.543-133.749-131.419-230.145-159.2C191.2,108.341,157,102.58,122.533,99.468,73.3,95.013,25.024,94.233-20.375,83.936q-5.373-1.22-10.7-2.619C-84.869,67.17-131.313,37.867-164.937-.453c-35.763-40.742-57.05-92.115-53.454-144.794" transform="translate(229.722 156.425)" fill="none" stroke="#f9f9f9" stroke-miterlimit="10" stroke-width="1"/>
    <path id="Path_7490" data-name="Path 7490" d="M1903.1,552.436c-91.576-79.4-223.258-120.754-353.837-122.952s-259.719,32.6-373.092,87.887c-71.253,34.742-137.294,77.62-212.328,105.993s-163.609,40.927-238.587,12.448c-93.832-35.636-141.4-123.21-186.448-201.923C464.736,304.441,362,170.541,199.822,130.24,119.044,110.163,30.759,115.773-47.327,89.052-155.59,52.005-227.649-50.343-215.095-149.234" transform="translate(227.14 149.234)" fill="none" stroke="#fff" stroke-miterlimit="10" stroke-width="1"/>
  </g>
</svg>
