<svg xmlns="http://www.w3.org/2000/svg" width="137.146" height="124.429" viewBox="0 0 137.146 124.429">
  <g id="Private_data-bro" data-name="Private data-bro" transform="translate(-18.44 -41.454)">
    <g id="freepik--background-simple--inject-4" transform="translate(18.44 41.454)">
      <path id="Path_54256" data-name="Path 54256" d="M152.964,100.284a71.881,71.881,0,0,0-38.52-49.919q-3.135-1.553-6.649-3.12C78.46,34.208,61.571,45.468,52.978,58.505S33.718,94.062,26.9,105.025,11.2,139.1,28.384,155.1s33.483,10.667,44.742,6.222,22.519-.593,43.261-.593,37.927-16,39.113-35.853C155.933,117.613,154.7,108.679,152.964,100.284Z" transform="translate(-18.44 -41.454)" fill="#407bff"/>
      <path id="Path_54257" data-name="Path 54257" d="M152.964,100.284a71.881,71.881,0,0,0-38.52-49.919q-3.135-1.553-6.649-3.12C78.46,34.208,61.571,45.468,52.978,58.505S33.718,94.062,26.9,105.025,11.2,139.1,28.384,155.1s33.483,10.667,44.742,6.222,22.519-.593,43.261-.593,37.927-16,39.113-35.853C155.933,117.613,154.7,108.679,152.964,100.284Z" transform="translate(-18.44 -41.454)" fill="#fff" opacity="0.7"/>
    </g>
    <g id="freepik--Lock--inject-4" transform="translate(58.901 47.343)">
      <path id="Path_54258" data-name="Path 54258" d="M222.051,204.4a30.336,30.336,0,0,0-56.331-5.274" transform="translate(-162.541 -146.477)" fill="none" stroke="#263238" stroke-linecap="round" stroke-linejoin="round" stroke-width="0.5"/>
      <path id="Path_54259" data-name="Path 54259" d="M358.728,272.41a30.658,30.658,0,0,0-.388-4.27" transform="translate(-298.086 -206.861)" fill="none" stroke="#263238" stroke-linecap="round" stroke-linejoin="round" stroke-width="0.5"/>
      <path id="Path_54260" data-name="Path 54260" d="M170.37,308.691a30.33,30.33,0,0,0,55.892-12.611" transform="translate(-165.813 -226.522)" fill="none" stroke="#263238" stroke-linecap="round" stroke-linejoin="round" stroke-width="0.5"/>
      <path id="Path_54261" data-name="Path 54261" d="M163.88,326.43c.3.655.61,1.3.948,1.932" transform="translate(-161.246 -247.879)" fill="none" stroke="#263238" stroke-linecap="round" stroke-linejoin="round" stroke-width="0.5"/>
      <path id="Path_54262" data-name="Path 54262" d="M157.067,247.38a30.443,30.443,0,0,0-.323,21.236" transform="translate(-154.99 -192.252)" fill="none" stroke="#263238" stroke-linecap="round" stroke-linejoin="round" stroke-width="0.5"/>
      <path id="Path_54263" data-name="Path 54263" d="M226.436,238.965a21.825,21.825,0,0,0,.661-3.058l-1.443-.151a.745.745,0,0,1,.154-1.482l1.443.151c.039-.53.065-1.067.065-1.606a21.754,21.754,0,0,0-.842-6l-1.481.483a.779.779,0,0,1-.228.036.741.741,0,0,1-.228-1.446l1.482-.483a21.8,21.8,0,0,0-3.852-6.652l-1.224,1.1a.741.741,0,0,1-.495.19.732.732,0,0,1-.551-.243.741.741,0,0,1,.053-1.046l1.224-1.1a21.867,21.867,0,0,0-6.249-4.522l-.7,1.567a.744.744,0,0,1-.679.439.717.717,0,0,1-.3-.065.741.741,0,0,1-.376-.978l.693-1.556A21.787,21.787,0,0,0,206.02,211v1.722a.741.741,0,0,1-1.482,0v-1.71A21.732,21.732,0,0,0,197,212.7l.693,1.556a.741.741,0,0,1-.376.978.717.717,0,0,1-.3.065.744.744,0,0,1-.679-.439l-.682-1.532a21.892,21.892,0,0,0-6.154,4.634l1.209,1.087a.741.741,0,0,1-.495,1.292.732.732,0,0,1-.495-.193l-1.185-1.07a21.882,21.882,0,0,0-3.713,6.732l1.458.471a.741.741,0,0,1-.228,1.446.782.782,0,0,1-.231-.036l-1.428-.465a21.841,21.841,0,0,0-.729,5.6c0,.673.036,1.336.095,1.994l1.413-.148a.745.745,0,1,1,.154,1.482l-1.387.148a21.63,21.63,0,0,0,2.489,7.144l1.147-.661a.741.741,0,1,1,.741,1.283l-1.12.646a21.927,21.927,0,0,0,5.141,5.52l.732-1.007a.741.741,0,0,1,1.185.871l-.714.99a21.755,21.755,0,0,0,6.91,2.963l.252-1.185a.741.741,0,0,1,1.449.3l-.249,1.167a21.77,21.77,0,0,0,7.514-.062l-.252-1.185a.741.741,0,1,1,1.449-.3l.252,1.185a21.761,21.761,0,0,0,6.868-3.088L217,249.87a.741.741,0,1,1,1.185-.871l.738,1.016a21.983,21.983,0,0,0,5.061-5.612l-1.164-.673a.741.741,0,1,1,.741-1.283l1.185.676a21.9,21.9,0,0,0,1.247-2.779" transform="translate(-175.172 -166.652)" fill="none" stroke="#263238" stroke-linecap="round" stroke-linejoin="round" stroke-width="0.5"/>
      <path id="Path_54264" data-name="Path 54264" d="M210.162,243.108a14.519,14.519,0,1,0,1.339-1.985" transform="translate(-192.508 -184.025)" fill="none" stroke="#263238" stroke-linecap="round" stroke-linejoin="round" stroke-width="0.5"/>
      <path id="Path_54265" data-name="Path 54265" d="M204.21,90.471a16.694,16.694,0,0,1,32.434,5.559v8.06" transform="translate(-189.626 -74.003)" fill="none" stroke="#263238" stroke-linecap="round" stroke-linejoin="round" stroke-width="0.5"/>
      <path id="Path_54266" data-name="Path 54266" d="M227.049,103.338V83.357a22.027,22.027,0,1,0-44.053,0v23.31a30.4,30.4,0,0,1,5.334-4.477V83.357a16.667,16.667,0,0,1,.385-3.556" transform="translate(-174.697 -61.33)" fill="none" stroke="#263238" stroke-linecap="round" stroke-linejoin="round" stroke-width="0.5"/>
      <path id="Path_54267" data-name="Path 54267" d="M313.67,172.8v7.831A30.4,30.4,0,0,1,319,185.109v-2.092" transform="translate(-266.652 -139.771)" fill="none" stroke="#263238" stroke-linecap="round" stroke-linejoin="round" stroke-width="0.5"/>
    </g>
    <g id="freepik--Password--inject-4" transform="translate(64.632 151.546)">
      <path id="Path_54268" data-name="Path 54268" d="M219.469,421.1H178.381a4.051,4.051,0,0,1-4.051-4.048h0A4.051,4.051,0,0,1,178.381,413h41.089a4.051,4.051,0,0,1,4.048,4.051h0A4.051,4.051,0,0,1,219.469,421.1Z" transform="translate(-174.33 -413)" fill="#263238" stroke="#263238" stroke-linecap="round" stroke-linejoin="round" stroke-width="0.5"/>
      <path id="Path_54269" data-name="Path 54269" d="M186.721,419.456l-.379-2.406h1.313l-.379,2.406,2.175-1.093.409,1.242-2.394.394,1.707,1.707-1.049.773L187,420.321l-1.123,2.169-1.052-.773,1.707-1.707-2.391-.406.409-1.242Z" transform="translate(-181.233 -415.85)" fill="#407bff"/>
      <path id="Path_54270" data-name="Path 54270" d="M218.587,419.456l-.379-2.406h1.313l-.379,2.406,2.175-1.093.409,1.242-2.394.394,1.707,1.719-1.049.773-1.123-2.157-1.123,2.157-1.052-.773,1.707-1.707L216,419.6l.406-1.242Z" transform="translate(-203.653 -415.85)" fill="#407bff"/>
      <path id="Path_54271" data-name="Path 54271" d="M250.495,419.456l-.379-2.406h1.313l-.379,2.406,2.175-1.093.409,1.242-2.394.394,1.707,1.707-1.049.773-1.123-2.157-1.126,2.157-1.049-.773L250.314,420l-2.394-.406.409-1.242Z" transform="translate(-226.115 -415.85)" fill="#407bff"/>
      <path id="Path_54272" data-name="Path 54272" d="M282.354,419.456l-.379-2.406h1.313l-.379,2.406,2.175-1.093.409,1.242L283.1,420l1.707,1.707-1.049.773-1.126-2.157-1.123,2.157-1.049-.773L282.164,420l-2.394-.406.409-1.242Z" transform="translate(-248.527 -415.85)" fill="#407bff"/>
      <path id="Path_54273" data-name="Path 54273" d="M314.255,419.456l-.379-2.406h1.313l-.379,2.406,2.175-1.093.406,1.242L315,420l1.707,1.707-1.052.773-1.123-2.157-1.123,2.157-1.04-.762,1.707-1.707-2.394-.406.409-1.242Z" transform="translate(-270.982 -415.85)" fill="#407bff"/>
    </g>
    <g id="freepik--GPS--inject-4" transform="translate(125.878 125.154)">
      <line id="Line_377" data-name="Line 377" x1="10.797" transform="translate(0.139 20.531)" fill="none" stroke="#263238" stroke-linecap="round" stroke-linejoin="round" stroke-width="0.5"/>
      <path id="Path_54274" data-name="Path 54274" d="M424.227,325v6.785a2.69,2.69,0,0,0,2.69,2.7h.682a2.637,2.637,0,0,1,2.637,2.64v4.969a3.126,3.126,0,0,1-3.126,3.126H423.22" transform="translate(-410.719 -324.683)" fill="none" stroke="#263238" stroke-linecap="round" stroke-linejoin="round" stroke-width="0.5"/>
      <path id="Path_54275" data-name="Path 54275" d="M426.26,328.671h1.028a2.963,2.963,0,0,0,2.963-2.963V323.93" transform="translate(-412.858 -323.93)" fill="none" stroke="#263238" stroke-linecap="round" stroke-linejoin="round" stroke-width="0.5"/>
      <path id="Path_54276" data-name="Path 54276" d="M406.37,324.66v2.1h1.153a3.165,3.165,0,0,1,3.162,3.165v.415h1.482" transform="translate(-398.862 -324.444)" fill="none" stroke="#263238" stroke-linecap="round" stroke-linejoin="round" stroke-width="0.5"/>
      <line id="Line_378" data-name="Line 378" x1="2.418" transform="translate(0.874 2.32)" fill="none" stroke="#263238" stroke-linecap="round" stroke-linejoin="round" stroke-width="0.5"/>
      <line id="Line_379" data-name="Line 379" x1="2.652" transform="translate(4.856 2.32)" fill="none" stroke="#263238" stroke-linecap="round" stroke-linejoin="round" stroke-width="0.5"/>
      <line id="Line_380" data-name="Line 380" y2="6.148" transform="translate(16.033 20.638)" fill="none" stroke="#263238" stroke-linecap="round" stroke-linejoin="round" stroke-width="0.5"/>
      <line id="Line_381" data-name="Line 381" x2="3.262" transform="translate(19.719 14.848)" fill="none" stroke="#263238" stroke-linecap="round" stroke-linejoin="round" stroke-width="0.5"/>
      <path id="Path_54277" data-name="Path 54277" d="M453.61,368.537V366.22H455.3" transform="translate(-432.104 -353.689)" fill="none" stroke="#263238" stroke-linecap="round" stroke-linejoin="round" stroke-width="0.5"/>
      <line id="Line_382" data-name="Line 382" x2="1.517" transform="translate(21.885 5.479)" fill="none" stroke="#263238" stroke-linecap="round" stroke-linejoin="round" stroke-width="0.5"/>
      <path id="Path_54278" data-name="Path 54278" d="M442.96,347.4V342.42h1.973" transform="translate(-424.61 -336.941)" fill="none" stroke="#263238" stroke-linecap="round" stroke-linejoin="round" stroke-width="0.5"/>
      <path id="Path_54279" data-name="Path 54279" d="M382.92,399.69l3.052-2.21h6.842a2.21,2.21,0,0,1,2.21,2.21v2.6" transform="translate(-382.36 -375.687)" fill="none" stroke="#263238" stroke-linecap="round" stroke-linejoin="round" stroke-width="0.5"/>
      <line id="Line_383" data-name="Line 383" y2="6.913" transform="translate(21.891 19.515)" fill="none" stroke="#263238" stroke-linecap="round" stroke-linejoin="round" stroke-width="0.5"/>
      <path id="Path_54280" data-name="Path 54280" d="M430.85,382.67h7.129v.545" transform="translate(-416.088 -365.265)" fill="none" stroke="#263238" stroke-linecap="round" stroke-linejoin="round" stroke-width="0.5"/>
      <line id="Line_384" data-name="Line 384" x2="13.372" transform="translate(0 17.405)" fill="none" stroke="#263238" stroke-linecap="round" stroke-linejoin="round" stroke-width="0.5"/>
      <path id="Path_54281" data-name="Path 54281" d="M402.519,376.031l-.45-1.031a3.073,3.073,0,0,0-2.815-1.84H387.09V378.9" transform="translate(-385.294 -358.573)" fill="none" stroke="#263238" stroke-linecap="round" stroke-linejoin="round" stroke-width="0.5"/>
      <line id="Line_385" data-name="Line 385" x1="11.126" transform="translate(12.38 22.839)" fill="none" stroke="#263238" stroke-linecap="round" stroke-linejoin="round" stroke-width="0.5"/>
      <path id="Path_54282" data-name="Path 54282" d="M433.437,363.322a1.076,1.076,0,1,0-.316.762A1.079,1.079,0,0,0,433.437,363.322Z" transform="translate(-416.391 -350.888)" fill="none" stroke="#263238" stroke-linecap="round" stroke-linejoin="round" stroke-width="0.5"/>
      <rect id="Rectangle_2757" data-name="Rectangle 2757" width="6.64" height="1.973" transform="translate(3.411 23.737)" fill="none" stroke="#263238" stroke-linecap="round" stroke-linejoin="round" stroke-width="0.5"/>
      <path id="Path_54283" data-name="Path 54283" d="M394.265,339.28A5.259,5.259,0,0,0,389,344.531c0,2.9,5.259,9.443,5.259,9.443s5.259-6.539,5.259-9.443A5.259,5.259,0,0,0,394.265,339.28Zm0,7.085a1.825,1.825,0,1,1,1.825-1.825A1.825,1.825,0,0,1,394.265,346.365Z" transform="translate(-386.638 -334.732)" fill="#263238" stroke="#263238" stroke-linecap="round" stroke-linejoin="round" stroke-width="0.5"/>
      <path id="Path_54284" data-name="Path 54284" d="M390.649,336.86a5.259,5.259,0,0,0-5.259,5.259c0,2.9,5.259,9.443,5.259,9.443s5.257-6.539,5.257-9.443A5.259,5.259,0,0,0,390.649,336.86Zm0,7.082a1.822,1.822,0,1,1,1.29-.533,1.825,1.825,0,0,1-1.29.533Z" transform="translate(-384.098 -333.029)" fill="#407bff" stroke="#263238" stroke-linecap="round" stroke-linejoin="round" stroke-width="0.5"/>
    </g>
    <g id="freepik--Documents--inject-4" transform="translate(127.229 88.065)">
      <path id="Path_54285" data-name="Path 54285" d="M453.391,262.577l3.345-15.337H448.65Z" transform="translate(-429.965 -232.875)" fill="#263238" stroke="#263238" stroke-linecap="round" stroke-linejoin="round" stroke-width="0.5"/>
      <rect id="Rectangle_2758" data-name="Rectangle 2758" width="19.66" height="21.473" transform="translate(4.299 1.286)" fill="#fff" stroke="#263238" stroke-linecap="round" stroke-linejoin="round" stroke-width="0.5"/>
      <rect id="Rectangle_2759" data-name="Rectangle 2759" width="19.66" height="21.473" transform="translate(2.788)" fill="#fff" stroke="#263238" stroke-linecap="round" stroke-linejoin="round" stroke-width="0.5"/>
      <rect id="Rectangle_2760" data-name="Rectangle 2760" width="5.019" height="5.47" transform="translate(4.184 2.48)" fill="#fff" stroke="#263238" stroke-linecap="round" stroke-linejoin="round" stroke-width="0.5"/>
      <line id="Line_386" data-name="Line 386" x2="5.209" transform="translate(15.147 2.652)" fill="none" stroke="#263238" stroke-linecap="round" stroke-linejoin="round" stroke-width="0.5"/>
      <line id="Line_387" data-name="Line 387" x2="2.919" transform="translate(11.014 2.652)" fill="none" stroke="#263238" stroke-linecap="round" stroke-linejoin="round" stroke-width="0.5"/>
      <line id="Line_388" data-name="Line 388" x2="1.905" transform="translate(18.451 4.602)" fill="none" stroke="#263238" stroke-linecap="round" stroke-linejoin="round" stroke-width="0.5"/>
      <line id="Line_389" data-name="Line 389" x2="6.394" transform="translate(11.014 4.602)" fill="none" stroke="#263238" stroke-linecap="round" stroke-linejoin="round" stroke-width="0.5"/>
      <line id="Line_390" data-name="Line 390" x2="5.381" transform="translate(14.975 6.554)" fill="none" stroke="#263238" stroke-linecap="round" stroke-linejoin="round" stroke-width="0.5"/>
      <line id="Line_391" data-name="Line 391" x2="2.397" transform="translate(11.014 6.554)" fill="none" stroke="#263238" stroke-linecap="round" stroke-linejoin="round" stroke-width="0.5"/>
      <line id="Line_392" data-name="Line 392" x2="3.991" transform="translate(16.365 8.507)" fill="none" stroke="#263238" stroke-linecap="round" stroke-linejoin="round" stroke-width="0.5"/>
      <line id="Line_393" data-name="Line 393" x2="3.44" transform="translate(11.014 8.507)" fill="none" stroke="#263238" stroke-linecap="round" stroke-linejoin="round" stroke-width="0.5"/>
      <line id="Line_394" data-name="Line 394" x2="1.905" transform="translate(18.451 10.46)" fill="none" stroke="#263238" stroke-linecap="round" stroke-linejoin="round" stroke-width="0.5"/>
      <line id="Line_395" data-name="Line 395" x2="3.301" transform="translate(13.236 10.46)" fill="none" stroke="#263238" stroke-linecap="round" stroke-linejoin="round" stroke-width="0.5"/>
      <line id="Line_396" data-name="Line 396" x2="1.375" transform="translate(11.014 10.46)" fill="none" stroke="#263238" stroke-linecap="round" stroke-linejoin="round" stroke-width="0.5"/>
      <circle id="Ellipse_10609" data-name="Ellipse 10609" cx="1.271" cy="1.271" r="1.271" transform="translate(5.455 3.248)" fill="#263238" stroke="#263238" stroke-linecap="round" stroke-linejoin="round" stroke-width="0.5"/>
      <path id="Path_54286" data-name="Path 54286" d="M404.065,220.142a1.292,1.292,0,0,0-1.12-.652h-1.3a1.3,1.3,0,0,0-1.052.545L399.7,221.3h5.019Z" transform="translate(-395.519 -213.348)" fill="#263238" stroke="#263238" stroke-linecap="round" stroke-linejoin="round" stroke-width="0.5"/>
      <path id="Path_54287" data-name="Path 54287" d="M385.59,235.609l3.206,18.685h20.22l-1.953-17.011H395.629l-1.535-1.813Z" transform="translate(-385.59 -224.593)" fill="#407bff" stroke="#263238" stroke-linecap="round" stroke-linejoin="round" stroke-width="0.5"/>
      <path id="Path_54288" data-name="Path 54288" d="M421.277,258.321a1.846,1.846,0,0,0-1.807-1.671,1.52,1.52,0,0,0-1.538,1.671,1.834,1.834,0,0,0,.9,1.425l-.086,4.572h2.51l-.8-4.5A1.52,1.52,0,0,0,421.277,258.321Z" transform="translate(-408.344 -239.496)" fill="#263238" stroke="#263238" stroke-linecap="round" stroke-linejoin="round" stroke-width="0.5"/>
    </g>
    <g id="freepik--Fingerprint--inject-4" transform="translate(133.423 57.857)">
      <path id="Path_54289" data-name="Path 54289" d="M456.721,117.7a.278.278,0,0,0,.27.2.341.341,0,0,0,.077,0,.3.3,0,0,0,.2-.35,7.577,7.577,0,0,0-.951-2.11.281.281,0,1,0-.471.308A7.063,7.063,0,0,1,456.721,117.7Z" transform="translate(-441.189 -109.837)" fill="#263238"/>
      <path id="Path_54290" data-name="Path 54290" d="M407.087,106.172a.288.288,0,0,0,.4-.053,8.223,8.223,0,0,1,7.138-2.773,9.686,9.686,0,0,1,6.14,2.616.281.281,0,1,0,.409-.385,10.111,10.111,0,0,0-6.489-2.791,8.652,8.652,0,0,0-7.648,2.981A.3.3,0,0,0,407.087,106.172Z" transform="translate(-406.833 -100.97)" fill="#263238"/>
      <path id="Path_54291" data-name="Path 54291" d="M422.762,114.828c-1.482-.276-2.122-1.778-2.637-3.008-.119-.276-.228-.536-.341-.759-.658-1.319-3.473-2.667-6.116-2.447a7.4,7.4,0,0,0-6.374,4.539,11.463,11.463,0,0,0-.593,4.871.3.3,0,0,0,.282.261H407a.3.3,0,0,0,.261-.3,10.861,10.861,0,0,1,.551-4.622,6.851,6.851,0,0,1,5.9-4.181c2.59-.222,5.064,1.138,5.562,2.136.1.207.21.459.323.729.539,1.268,1.274,3.01,3.058,3.339a.3.3,0,1,0,.1-.554Z" transform="translate(-406.611 -105.1)" fill="#263238"/>
      <path id="Path_54292" data-name="Path 54292" d="M407.651,144.492h.068a.3.3,0,0,0,.2-.341s-.071-.3-.145-.788a.3.3,0,0,0-.323-.237.279.279,0,0,0-.234.32c.077.516.151.824.157.839a.279.279,0,0,0,.273.207Z" transform="translate(-407.003 -129.401)" fill="#263238"/>
      <path id="Path_54293" data-name="Path 54293" d="M433.417,121.6l-3.01-2.219a6.359,6.359,0,0,0-.3-.975,5.457,5.457,0,0,0-3.923-3.437,7.366,7.366,0,0,0-3.971.51.3.3,0,1,0,.231.516,6.762,6.762,0,0,1,3.668-.465c2.024.279,3.212,2.37,3.47,3.07a4.6,4.6,0,0,1,.279.939.3.3,0,0,0,.116.225l3.105,2.29a.267.267,0,0,0,.166.056.3.3,0,0,0,.169-.51Z" transform="translate(-417.373 -109.533)" fill="#263238"/>
      <path id="Path_54294" data-name="Path 54294" d="M409.185,126.037c-.489-1.65-.8-4.012.48-5.9a4.226,4.226,0,0,1,1.09-1.1.3.3,0,0,0-.323-.462,4.776,4.776,0,0,0-1.233,1.244c-1.114,1.636-1.307,3.852-.557,6.374.51,1.719-1.947,2.667-1.973,2.688a.282.282,0,0,0,.2.527C407.9,129.021,409.712,127.815,409.185,126.037Z" transform="translate(-406.492 -112.12)" fill="#263238"/>
      <path id="Path_54295" data-name="Path 54295" d="M425.634,128.2a22.976,22.976,0,0,1-3.923-3.188,2.67,2.67,0,0,1-.634-1.15,2.738,2.738,0,0,0-.385-.889,3.934,3.934,0,0,0-4.053-1.683c-1.956.314-3.123,1.828-3.123,4.051,0,.916.071,1.707.139,2.474a16,16,0,0,1,.086,2.824c-.13,1.544-2.264,2.107-2.3,2.116a.281.281,0,0,0,.068.554h.068c.107-.027,2.563-.664,2.726-2.616a16.479,16.479,0,0,0-.083-2.922c-.068-.753-.136-1.532-.136-2.424,0-1.95.963-3.224,2.646-3.493a3.39,3.39,0,0,1,3.485,1.422,2.115,2.115,0,0,1,.317.738,3.111,3.111,0,0,0,.735,1.357,22.888,22.888,0,0,0,4.059,3.316.3.3,0,1,0,.311-.471Z" transform="translate(-409.824 -113.992)" fill="#263238"/>
      <path id="Path_54296" data-name="Path 54296" d="M426.762,133.221l-.142-.178c-1.09-1.357-1.689-2.1-.8-3.556.311-.51.661-.762,1.031-.744.551.021,1.2.625,1.656,1.535a12.015,12.015,0,0,0,2.047,2.442.3.3,0,0,0,.4-.4,11.513,11.513,0,0,1-1.944-2.293,2.883,2.883,0,0,0-2.136-1.849,1.722,1.722,0,0,0-1.535,1.016c-1.1,1.8-.3,2.812.839,4.211l.142.178a56.751,56.751,0,0,0,5.363,4.919.279.279,0,0,0,.181.065.3.3,0,0,0,.178-.5A59.292,59.292,0,0,1,426.762,133.221Z" transform="translate(-419.388 -118.883)" fill="#263238"/>
      <path id="Path_54297" data-name="Path 54297" d="M448.043,145.5a.3.3,0,0,0-.388.409c1.185,1.129,2.276,2.074,2.287,2.089a.3.3,0,0,0,.184.068.278.278,0,0,0,.213-.1.3.3,0,0,0-.027-.4S449.213,146.621,448.043,145.5Z" transform="translate(-435.432 -131.054)" fill="#263238"/>
      <path id="Path_54298" data-name="Path 54298" d="M437.441,140.629a44.765,44.765,0,0,1-4.682-4.163,8.547,8.547,0,0,1-1.286-2.421.281.281,0,1,0-.539.16,8.773,8.773,0,0,0,1.378,2.6,41.991,41.991,0,0,0,4.779,4.264.283.283,0,0,0,.35-.444Z" transform="translate(-423.681 -122.863)" fill="#263238"/>
      <path id="Path_54299" data-name="Path 54299" d="M429,160.1c-1.067.658-1.307,2.782-1.316,2.871a.3.3,0,0,0,.252.311h.03a.279.279,0,0,0,.279-.252c.059-.536.359-2.024,1.052-2.45.566-.347,1.778.806,2.3,1.416a.281.281,0,1,0,.436-.356C431.84,161.41,430.151,159.4,429,160.1Z" transform="translate(-421.408 -141.244)" fill="#263238"/>
      <path id="Path_54300" data-name="Path 54300" d="M420.254,149.347a.3.3,0,0,0-.2.344,4.827,4.827,0,0,1-.21,2.708,3.144,3.144,0,0,1-1.612,1.778.282.282,0,0,0,.2.527,3.7,3.7,0,0,0,1.938-2.074,5.292,5.292,0,0,0,.231-3.061.3.3,0,0,0-.344-.222Z" transform="translate(-414.652 -133.777)" fill="#263238"/>
      <path id="Path_54301" data-name="Path 54301" d="M421.269,97.733a11.285,11.285,0,0,1,7.079.471.237.237,0,0,0,.11.024.3.3,0,0,0,.113-.542,11.854,11.854,0,0,0-7.434-.5.3.3,0,1,0,.133.548Z" transform="translate(-416.573 -96.812)" fill="#263238"/>
      <path id="Path_54302" data-name="Path 54302" d="M415.078,100.056a.3.3,0,0,0,.119-.027,7.775,7.775,0,0,1,.735-.3.3.3,0,0,0-.184-.533,7.669,7.669,0,0,0-.791.3.3.3,0,0,0,.121.536Z" transform="translate(-412.358 -98.492)" fill="#263238"/>
    </g>
    <g id="freepik--Email--inject-4" transform="translate(25.978 127.405)">
      <rect id="Rectangle_2761" data-name="Rectangle 2761" width="21.085" height="13.672" rx="5.87" transform="translate(0 0)" fill="#fff" stroke="#263238" stroke-linecap="round" stroke-linejoin="round" stroke-width="0.5"/>
      <path id="Path_54303" data-name="Path 54303" d="M53.88,339.08,60.8,343a2.566,2.566,0,0,0,2.667-.077L71.99,337.4" transform="translate(-50.917 -335.661)" fill="none" stroke="#263238" stroke-linecap="round" stroke-linejoin="round" stroke-width="0.5"/>
      <line id="Line_397" data-name="Line 397" x2="1.799" y2="1.019" transform="translate(0 1.739)" fill="none" stroke="#263238" stroke-linecap="round" stroke-linejoin="round" stroke-width="0.5"/>
      <rect id="Rectangle_2762" data-name="Rectangle 2762" width="21.085" height="13.672" rx="5.87" transform="translate(5.096 5.099)" fill="#407bff" stroke="#263238" stroke-linecap="round" stroke-linejoin="round" stroke-width="0.5"/>
      <line id="Line_398" data-name="Line 398" y1="3.375" x2="5.218" transform="translate(20.967 6.836)" fill="none" stroke="#263238" stroke-linecap="round" stroke-linejoin="round" stroke-width="0.5"/>
      <path id="Path_54304" data-name="Path 54304" d="M69.9,359.6l7.271,4.125a2.566,2.566,0,0,0,2.667-.08l2.027-1.31" transform="translate(-62.19 -351.283)" fill="none" stroke="#263238" stroke-linecap="round" stroke-linejoin="round" stroke-width="0.5"/>
      <line id="Line_399" data-name="Line 399" x2="1.807" y2="1.025" transform="translate(5.096 6.836)" fill="none" stroke="#263238" stroke-linecap="round" stroke-linejoin="round" stroke-width="0.5"/>
      <circle id="Ellipse_10610" data-name="Ellipse 10610" cx="3.129" cy="3.129" r="3.129" transform="translate(21.281 8.164) rotate(-67.35)" fill="#263238" stroke="#263238" stroke-linecap="round" stroke-linejoin="round" stroke-width="0.5"/>
      <path id="Path_54305" data-name="Path 54305" d="M125.33,349.758a.418.418,0,0,0,.465-.338h.3v2.69h-.424v-2.053h-.326Z" transform="translate(-101.196 -344.119)" fill="#fff"/>
      <path id="Path_54306" data-name="Path 54306" d="M129.47,350.073a.643.643,0,1,1,1.286,0v1.4a.643.643,0,1,1-1.286,0Zm.424,1.425c0,.193.086.267.219.267s.219-.074.219-.267v-1.452c0-.193-.083-.267-.219-.267s-.219.074-.219.267Z" transform="translate(-104.109 -344.126)" fill="#fff"/>
    </g>
    <g id="freepik--Cards--inject-4" transform="translate(25.937 92.646)">
      <path id="Path_54307" data-name="Path 54307" d="M65.043,215.7v11.556a1.482,1.482,0,0,1-1.482,1.482h-18.3a1.482,1.482,0,0,1-1.482-1.482V215.7a1.482,1.482,0,0,1,1.482-1.482H63.55a1.482,1.482,0,0,1,1.493,1.482Z" transform="translate(-43.768 -214.22)" fill="#407bff" stroke="#263238" stroke-linecap="round" stroke-linejoin="round" stroke-width="0.5"/>
      <circle id="Ellipse_10611" data-name="Ellipse 10611" cx="1.12" cy="1.12" r="1.12" transform="translate(17.168 0.827)" fill="#fff" stroke="#263238" stroke-linecap="round" stroke-linejoin="round" stroke-width="0.5"/>
      <rect id="Rectangle_2763" data-name="Rectangle 2763" width="21.275" height="3.387" transform="translate(0 4.608)" fill="#263238" stroke="#263238" stroke-linecap="round" stroke-linejoin="round" stroke-width="0.5"/>
      <path id="Path_54308" data-name="Path 54308" d="M81.531,231.192v11.556a1.482,1.482,0,0,1-1.482,1.482H61.762a1.482,1.482,0,0,1-1.482-1.482V231.192a1.482,1.482,0,0,1,1.482-1.482H80.05A1.482,1.482,0,0,1,81.531,231.192Z" transform="translate(-55.379 -225.12)" fill="#fff" stroke="#263238" stroke-linecap="round" stroke-linejoin="round" stroke-width="0.5"/>
      <circle id="Ellipse_10612" data-name="Ellipse 10612" cx="1.12" cy="1.12" r="1.12" transform="translate(22.057 5.417)" fill="#fff" stroke="#263238" stroke-linecap="round" stroke-linejoin="round" stroke-width="0.5"/>
      <rect id="Rectangle_2764" data-name="Rectangle 2764" width="21.275" height="3.387" transform="translate(4.889 9.197)" fill="#263238" stroke="#263238" stroke-linecap="round" stroke-linejoin="round" stroke-width="0.5"/>
    </g>
    <g id="freepik--Character--inject-4" transform="translate(60.212 70.853)">
      <path id="Path_54309" data-name="Path 54309" d="M186.289,279.148a9.3,9.3,0,0,0,.667,2.222c.37.593,1.407,1.259,1.482,2.519a24.551,24.551,0,0,1,0,2.519s3.185,1.926,5.778,3.259a31.642,31.642,0,0,0,4.815,2l-.741,6.148s-7.852-5.482-9.7-7.185-3.556-3.63-3.852-3.7a20,20,0,0,1-2.741-3.7c-.074-.37,1.111-1.111,1.482-1.037s.815-.815,1.037-1.556.222-1.63.741-1.63A4.331,4.331,0,0,1,186.289,279.148Z" transform="translate(-175.3 -238.013)" fill="#fff" stroke="#263238" stroke-linecap="round" stroke-linejoin="round" stroke-width="0.5"/>
      <path id="Path_54310" data-name="Path 54310" d="M159.648,273.586l9.1,9.23a.818.818,0,0,0,1.031.11l2.341-1.547a.815.815,0,0,0,.145-1.236l-8.3-8.889a.812.812,0,0,0-.889-.2l-3.141,1.206a.815.815,0,0,0-.29,1.33Z" transform="translate(-159.416 -232.379)" fill="#263238" stroke="#263238" stroke-linecap="round" stroke-linejoin="round" stroke-width="0.5"/>
      <path id="Path_54311" data-name="Path 54311" d="M223.85,282.226a30.377,30.377,0,0,0,23.583-1.6c.19-2.637.314-5.817.314-6.972,0-2,1.7-9.408,2.593-13.408s-.3-8.445-1.333-12.667-5.111-7.111-5.111-7.111l-10.074,4.815s-7.556,6.741-8.223,10.371,2,6.963,2,7.778C227.6,264.115,224.816,277.23,223.85,282.226Z" transform="translate(-204.758 -210.899)" fill="#407bff" stroke="#263238" stroke-linecap="round" stroke-linejoin="round" stroke-width="0.5"/>
      <path id="Path_54312" data-name="Path 54312" d="M292.14,311.1s3.819-2.827,4.125-2.981" transform="translate(-252.813 -258.504)" fill="none" stroke="#263238" stroke-linecap="round" stroke-linejoin="round" stroke-width="0.5"/>
      <line id="Line_400" data-name="Line 400" y1="0.916" x2="4.202" transform="translate(38.563 52.979)" fill="none" stroke="#263238" stroke-linecap="round" stroke-linejoin="round" stroke-width="0.5"/>
      <path id="Path_54313" data-name="Path 54313" d="M251.37,222.695l.889,1.852,8-5.334-2.148-2.963L251,222.176Z" transform="translate(-223.863 -193.856)" fill="#263238" stroke="#263238" stroke-linecap="round" stroke-linejoin="round" stroke-width="0.5"/>
      <path id="Path_54314" data-name="Path 54314" d="M259.366,223.273l-7.74,5.437a1.141,1.141,0,0,0-.4,1.375l1.573,3.787a.99.99,0,0,0,1.431.465l8.978-5.5a.993.993,0,0,0,.279-1.437l-2.91-3.938A.889.889,0,0,0,259.366,223.273Z" transform="translate(-223.962 -198.686)" fill="#407bff" stroke="#263238" stroke-linecap="round" stroke-linejoin="round" stroke-width="0.5"/>
      <path id="Path_54315" data-name="Path 54315" d="M213.57,179.069a18.957,18.957,0,0,0,1.019,5.088c.764,1.532,2.036,3.055,1.653,3.689s-1.019,2.163-.127,2.8a2.394,2.394,0,0,0,1.653.51s2.2,5.334,3.719,5.63c2.634.536,6.714-4.234,7.111-4.362s3.689-2.418,3.944-5.334-1.274-7.111-2.545-7.633-3.944.124-6.222-.764S214.08,175.632,213.57,179.069Z" transform="translate(-197.524 -166.373)" fill="#fff" stroke="#263238" stroke-linecap="round" stroke-linejoin="round" stroke-width="0.5"/>
      <path id="Path_54316" data-name="Path 54316" d="M227.31,205l.382,1.144a2.184,2.184,0,0,0,2.29-.889" transform="translate(-207.192 -185.939)" fill="none" stroke="#263238" stroke-linecap="round" stroke-linejoin="round" stroke-width="0.5"/>
      <path id="Path_54317" data-name="Path 54317" d="M224.12,197.376s.658-1.138,2.815-.539" transform="translate(-204.948 -180.073)" fill="none" stroke="#263238" stroke-linecap="round" stroke-linejoin="round" stroke-width="0.5"/>
      <path id="Path_54318" data-name="Path 54318" d="M231,226.008a2.468,2.468,0,0,0,1.185-.418" transform="translate(-209.789 -200.428)" fill="none" stroke="#263238" stroke-linecap="round" stroke-linejoin="round" stroke-width="0.5"/>
      <path id="Path_54319" data-name="Path 54319" d="M205.34,145.988s-2.545,2.667-2.163,4.836a5.993,5.993,0,0,0,4.705,4.2c1.526,0,2.418-.382,4.326-.382a7.776,7.776,0,0,1,4.708,2.163c.764.764,1.778,1.778,2.418.764s.255-1.908,2.8-1.656,2.036,4.2,1.147,6.107-1.526,2.928-2.545,2.928-2.418-.637-1.653.51,3.052,3.816,8.27,2.8a8.153,8.153,0,0,0,6.868-7.888c0-2.554-1.778-6.362-3.052-9.031s-3.816-8.27-10.051-10.051S207.882,141.789,205.34,145.988Z" transform="translate(-190.183 -140.673)" fill="#263238" stroke="#263238" stroke-linecap="round" stroke-linejoin="round" stroke-width="0.5"/>
      <path id="Path_54320" data-name="Path 54320" d="M257.855,193.469s-.119-2.513,1.378-2.993a2.271,2.271,0,0,1,3.055,2.216c.062,1.8-.181,3.65-.839,4.311s-2.456.119-2.456.119" transform="translate(-228.685 -175.629)" fill="#fff" stroke="#263238" stroke-linecap="round" stroke-linejoin="round" stroke-width="0.5"/>
      <path id="Path_54321" data-name="Path 54321" d="M196.557,263s-3.63,2.667-4.371,5.926-2.519,12.519-2.519,12.519-1.185-.148-1.185.148a5.589,5.589,0,0,1-.3,1.111s-.963,0-1.037.37-8-3.7-10-5.037a35.32,35.32,0,0,1-4.963-3.778,33.483,33.483,0,0,0-2.815-3.185,33.053,33.053,0,0,0-2.741-2c-.3-.222-.741-2.148-1.407-1.852s-.519,1.63-.222,2.148,1.482,2.667,1.482,2.667a11.893,11.893,0,0,0-3.037.593c-.519.37-.815,1.63-.222,2.074a5.093,5.093,0,0,0,1.926.593s.37,1.852,1.111,2.37A17.892,17.892,0,0,0,168.927,279a13.675,13.675,0,0,0,2.963.37s3.111,3.482,5.259,5.63,10.593,8.223,11.852,8.667a3.215,3.215,0,0,0,3.259-1.259c.519-.741,9.186-12.963,11.26-17.038" transform="translate(-161.864 -226.754)" fill="#fff" stroke="#263238" stroke-linecap="round" stroke-linejoin="round" stroke-width="0.5"/>
      <path id="Path_54322" data-name="Path 54322" d="M237.164,263s-3.63,2.667-4.371,5.926-2.519,12.519-2.519,12.519-1.185-.148-1.185.148a5.588,5.588,0,0,1-.3,1.111s-.963,0-1.037.37c-.036.175-1.8-.634-3.876-1.677L220.6,287.4a78.064,78.064,0,0,0,9.008,6.264,3.214,3.214,0,0,0,3.259-1.259c.519-.741,9.594-13.227,11.852-17.482" transform="translate(-202.471 -226.754)" fill="#407bff" stroke="#263238" stroke-linecap="round" stroke-linejoin="round" stroke-width="0.5"/>
      <path id="Path_54323" data-name="Path 54323" d="M189.458,278.657s-.963,2.593-1.407,2.815-.889.148-1.185-.519.667-2.741.667-2.741a1.358,1.358,0,0,1,1.185-.963c.889,0,.963.667.963.667Z" transform="translate(-178.692 -236.781)" fill="#fff" stroke="#263238" stroke-linecap="round" stroke-linejoin="round" stroke-width="0.5"/>
    </g>
  </g>
</svg>
