<svg xmlns="http://www.w3.org/2000/svg" width="137.721" height="123.181" viewBox="0 0 137.721 123.181">
  <g id="Group_7510" data-name="Group 7510" transform="translate(-1272.75 -3974.57)">
    <g id="freepik--background-simple--inject-80" transform="translate(1275.367 3974.57)">
      <path id="Path_54324" data-name="Path 54324" d="M147,99.6c-1.382,11.717-6.731,25.335-17.415,31.593-16.14,9.455-14.778,24-46.293,30.312a64.628,64.628,0,0,1-13.967,1.319,53.552,53.552,0,0,1-6.855-.56c-20.023-2.914-33.5-16.832-38.44-33.633-6.506-22.095,6.483-36.561,15.092-45.275S54.036,47.489,84.957,41.029a62.814,62.814,0,0,1,14.357-1.362c11,.268,23,3.881,31.3,11.423.623.577,1.229,1.154,1.821,1.757C143.98,64.694,148.885,83.635,147,99.6Z" transform="translate(-22.266 -39.654)" fill="#407bff"/>
      <path id="Path_54325" data-name="Path 54325" d="M147,99.6c-1.382,11.717-6.731,25.335-17.415,31.593-16.14,9.455-14.778,24-46.293,30.312a64.628,64.628,0,0,1-13.967,1.319,53.552,53.552,0,0,1-6.855-.56c-20.023-2.914-33.5-16.832-38.44-33.633-6.506-22.095,6.483-36.561,15.092-45.275S54.036,47.489,84.957,41.029a62.814,62.814,0,0,1,14.357-1.362c11,.268,23,3.881,31.3,11.423.623.577,1.229,1.154,1.821,1.757C143.98,64.694,148.885,83.635,147,99.6Z" transform="translate(-22.266 -39.654)" fill="#fff" opacity="0.7"/>
    </g>
    <g id="freepik--Plant--inject-80" transform="translate(1376.525 4037.167)">
      <line id="Line_401" data-name="Line 401" y1="32.56" transform="translate(14.465 15.331)" fill="none" stroke="#263238" stroke-linecap="round" stroke-linejoin="round" stroke-width="0.5"/>
      <line id="Line_402" data-name="Line 402" y1="16.146" transform="translate(11.825 31.745)" fill="none" stroke="#263238" stroke-linecap="round" stroke-linejoin="round" stroke-width="0.5"/>
      <path id="Path_54326" data-name="Path 54326" d="M415.036,277.281a5.21,5.21,0,0,1-3.751-2.409c-1.091-2.106-1.194-7.539,2.949-13.56s6.316-6.085,7.037-1.171.617,12.049-1.079,14.752S415.036,277.281,415.036,277.281Z" transform="translate(-399.746 -256.612)" fill="#fff" stroke="#263238" stroke-linecap="round" stroke-linejoin="round" stroke-width="0.5"/>
      <path id="Path_54327" data-name="Path 54327" d="M429.14,278.581a16.223,16.223,0,0,1,1.757-4.2" transform="translate(-412.906 -269.254)" fill="none" stroke="#263238" stroke-linecap="round" stroke-linejoin="round" stroke-width="0.5"/>
      <path id="Path_54328" data-name="Path 54328" d="M422,302.753a77.477,77.477,0,0,1,1.731-9.833" transform="translate(-407.826 -282.444)" fill="none" stroke="#263238" stroke-linecap="round" stroke-linejoin="round" stroke-width="0.5"/>
      <path id="Path_54329" data-name="Path 54329" d="M427.47,333.594a4.179,4.179,0,0,1-1.57-3.229c.138-1.9,2.331-5.7,7.7-8.1s6.9-1.552,5.343,2.135-4.616,8.566-6.924,9.72A4.673,4.673,0,0,1,427.47,333.594Z" transform="translate(-410.596 -302.356)" fill="#fff" stroke="#263238" stroke-linecap="round" stroke-linejoin="round" stroke-width="0.5"/>
      <path id="Path_54330" data-name="Path 54330" d="M450.07,333.818a13.3,13.3,0,0,1,2.969-2.158" transform="translate(-427.798 -310.007)" fill="none" stroke="#263238" stroke-linecap="round" stroke-linejoin="round" stroke-width="0.5"/>
      <path id="Path_54331" data-name="Path 54331" d="M430.178,341.4a62.373,62.373,0,0,0-5.315,6.059,12.072,12.072,0,0,0-1.783,5.531" transform="translate(-408.595 -316.937)" fill="none" stroke="#263238" stroke-linecap="round" stroke-linejoin="round" stroke-width="0.5"/>
      <path id="Path_54332" data-name="Path 54332" d="M425.747,384.871a2.419,2.419,0,0,1-.909-1.87c.081-1.1,1.35-3.3,4.463-4.7s4-.9,3.093,1.241-2.675,4.963-4.008,5.629A2.725,2.725,0,0,1,425.747,384.871Z" transform="translate(-409.843 -342.635)" fill="#fff" stroke="#263238" stroke-linecap="round" stroke-linejoin="round" stroke-width="0.5"/>
      <path id="Path_54333" data-name="Path 54333" d="M438.81,385.049a7.5,7.5,0,0,1,1.731-1.249" transform="translate(-419.786 -347.104)" fill="none" stroke="#263238" stroke-linecap="round" stroke-linejoin="round" stroke-width="0.5"/>
      <path id="Path_54334" data-name="Path 54334" d="M427.284,389.44a36.157,36.157,0,0,0-3.079,3.506,6.989,6.989,0,0,0-1.036,3.205" transform="translate(-408.659 -351.116)" fill="none" stroke="#263238" stroke-linecap="round" stroke-linejoin="round" stroke-width="0.5"/>
      <path id="Path_54335" data-name="Path 54335" d="M384.928,318.334a4.188,4.188,0,0,0,1.57-3.229c-.136-1.9-2.331-5.7-7.7-8.1s-6.9-1.552-5.341,2.135,4.616,8.566,6.924,9.72A4.673,4.673,0,0,0,384.928,318.334Z" transform="translate(-372.875 -291.499)" fill="#fff" stroke="#263238" stroke-linecap="round" stroke-linejoin="round" stroke-width="0.5"/>
      <path id="Path_54336" data-name="Path 54336" d="M388.612,318.558a13.1,13.1,0,0,0-2.972-2.158" transform="translate(-381.957 -299.15)" fill="none" stroke="#263238" stroke-linecap="round" stroke-linejoin="round" stroke-width="0.5"/>
      <path id="Path_54337" data-name="Path 54337" d="M398.33,326.14a62.505,62.505,0,0,1,5.312,6.059,12.092,12.092,0,0,1,1.786,5.531" transform="translate(-390.986 -306.08)" fill="none" stroke="#263238" stroke-linecap="round" stroke-linejoin="round" stroke-width="0.5"/>
      <path id="Path_54338" data-name="Path 54338" d="M402.991,372.41a3.622,3.622,0,0,0,2.6-.987c.866-1.042,1.385-3.95-.779-7.5s-3.546-3.8-4.411-1.2-1.37,6.4-.5,7.992S402.991,372.41,402.991,372.41Z" transform="translate(-391.778 -330.869)" fill="#fff" stroke="#263238" stroke-linecap="round" stroke-linejoin="round" stroke-width="0.5"/>
      <path id="Path_54339" data-name="Path 54339" d="M412.68,391.41c.026.355.043.71.052,1.062" transform="translate(-401.195 -352.518)" fill="none" stroke="#263238" stroke-linecap="round" stroke-linejoin="round" stroke-width="0.5"/>
      <path id="Path_54340" data-name="Path 54340" d="M408.08,366.41a40.389,40.389,0,0,1,1.252,6.385" transform="translate(-397.923 -334.731)" fill="none" stroke="#263238" stroke-linecap="round" stroke-linejoin="round" stroke-width="0.5"/>
    </g>
    <g id="freepik--Window--inject-80" transform="translate(1276.125 3976.17)">
      <path id="Path_54341" data-name="Path 54341" d="M24.89,126.707H64.824V45.2" transform="translate(-24.89 -45.2)" fill="none" stroke="#263238" stroke-linecap="round" stroke-linejoin="round" stroke-width="0.5"/>
      <path id="Path_54342" data-name="Path 54342" d="M211.7,126.707H171.77V45.2" transform="translate(-129.392 -45.2)" fill="none" stroke="#263238" stroke-linecap="round" stroke-linejoin="round" stroke-width="0.5"/>
      <path id="Path_54343" data-name="Path 54343" d="M228.26,126.707h39.934V45.2" transform="translate(-169.584 -45.2)" fill="none" stroke="#263238" stroke-linecap="round" stroke-linejoin="round" stroke-width="0.5"/>
      <line id="Line_403" data-name="Line 403" x1="13.959" y2="15.424" transform="translate(76.504 19.138)" fill="none" stroke="#263238" stroke-linecap="round" stroke-linejoin="round" stroke-width="0.5"/>
      <line id="Line_404" data-name="Line 404" x1="3.872" y2="4.279" transform="translate(78.847 31.071)" fill="none" stroke="#263238" stroke-linecap="round" stroke-linejoin="round" stroke-width="0.5"/>
      <line id="Line_405" data-name="Line 405" x1="7.539" y2="8.33" transform="translate(44.415 15.087)" fill="none" stroke="#263238" stroke-linecap="round" stroke-linejoin="round" stroke-width="0.5"/>
      <line id="Line_406" data-name="Line 406" y1="5.629" x2="5.095" transform="translate(53.991 7.429)" fill="none" stroke="#263238" stroke-linecap="round" stroke-linejoin="round" stroke-width="0.5"/>
      <line id="Line_407" data-name="Line 407" x1="4.89" y2="5.404" transform="translate(33.414 64.62)" fill="none" stroke="#263238" stroke-linecap="round" stroke-linejoin="round" stroke-width="0.5"/>
      <line id="Line_408" data-name="Line 408" x1="9.068" y2="10.02" transform="translate(27.606 57.416)" fill="none" stroke="#263238" stroke-linecap="round" stroke-linejoin="round" stroke-width="0.5"/>
    </g>
    <g id="freepik--Clock--inject-80" transform="translate(1372.57 3977.893)">
      <circle id="Ellipse_10613" data-name="Ellipse 10613" cx="14.455" cy="14.455" r="14.455" transform="translate(0 26.844) rotate(-68.21)" fill="none" stroke="#263238" stroke-linecap="round" stroke-linejoin="round" stroke-width="0.5"/>
      <circle id="Ellipse_10614" data-name="Ellipse 10614" cx="12.617" cy="12.617" r="12.617" transform="translate(6.175 6.174)" fill="none" stroke="#263238" stroke-linecap="round" stroke-linejoin="round" stroke-width="0.5"/>
      <circle id="Ellipse_10615" data-name="Ellipse 10615" cx="0.863" cy="0.863" r="0.863" transform="translate(17.93 17.929)" fill="none" stroke="#263238" stroke-linecap="round" stroke-linejoin="round" stroke-width="0.5"/>
      <line id="Line_409" data-name="Line 409" y2="4.238" transform="translate(18.792 19.654)" fill="none" stroke="#263238" stroke-linecap="round" stroke-linejoin="round" stroke-width="0.5"/>
      <line id="Line_410" data-name="Line 410" x1="10.289" transform="translate(7.641 18.791)" fill="none" stroke="#263238" stroke-linecap="round" stroke-linejoin="round" stroke-width="0.5"/>
    </g>
    <g id="freepik--speech-bubble--inject-80" transform="translate(1281.318 3989.741)">
      <path id="Path_54344" data-name="Path 54344" d="M87.289,138.4l-4.755-7.38a21.423,21.423,0,1,0-2.426,3.205Z" transform="translate(-42.892 -96.567)" fill="#263238" stroke="#263238" stroke-linecap="round" stroke-linejoin="round" stroke-width="0.5"/>
      <path id="Path_54345" data-name="Path 54345" d="M88.914,132.271l-4.758-7.38a21.405,21.405,0,1,0-2.424,3.205Z" transform="translate(-44.064 -92.234)" fill="#fff" stroke="#263238" stroke-linecap="round" stroke-linejoin="round" stroke-width="0.5"/>
      <path id="Path_54346" data-name="Path 54346" d="M66.553,142.739v-2l3.278-5.038c.248-.372.482-.736.7-1.085a6.413,6.413,0,0,0,.542-1.068,3.081,3.081,0,0,0,.211-1.137,1.365,1.365,0,0,0-.237-.88.793.793,0,0,0-.643-.289.972.972,0,0,0-.713.254,1.325,1.325,0,0,0-.346.678,4.352,4.352,0,0,0-.1.949v.669H66.519v-.727a5.739,5.739,0,0,1,.39-2.158,3.174,3.174,0,0,1,1.238-1.509,4.01,4.01,0,0,1,2.219-.551,3.734,3.734,0,0,1,2.787.958,3.662,3.662,0,0,1,.941,2.669,4.411,4.411,0,0,1-.263,1.544,7.03,7.03,0,0,1-.7,1.379c-.289.447-.594.912-.923,1.4L69.7,140.549H73.72v2.19Z" transform="translate(-59.702 -118.282)" fill="#263238" stroke="#263238" stroke-linecap="round" stroke-linejoin="round" stroke-width="0.5"/>
      <path id="Path_54347" data-name="Path 54347" d="M99.161,143.183v-3.073H94.94v-2.083l3.578-8.558H101.8v8.54h1.269v2.1H101.8v3.073Zm-2.069-5.193h2.069V132.3Z" transform="translate(-79.923 -118.727)" fill="#263238" stroke="#263238" stroke-linecap="round" stroke-linejoin="round" stroke-width="0.5"/>
      <path id="Path_54348" data-name="Path 54348" d="M126.78,143.155l4.2-13.725h1.492l-4.218,13.725Z" transform="translate(-102.577 -118.698)" fill="#263238" stroke="#263238" stroke-linecap="round" stroke-linejoin="round" stroke-width="0.5"/>
      <path id="Path_54349" data-name="Path 54349" d="M150.957,143.155l2.983-11.573H150.19V129.43H156.7v1.948l-2.975,11.777Z" transform="translate(-119.232 -118.698)" fill="#263238" stroke="#263238" stroke-linecap="round" stroke-linejoin="round" stroke-width="0.5"/>
      <path id="Path_54350" data-name="Path 54350" d="M71.5,189.568a1.783,1.783,0,0,1-.961-.239,1.5,1.5,0,0,1-.577-.675,3.038,3.038,0,0,1-.237-1.016l.577-.173a3.9,3.9,0,0,0,.159.793,1.154,1.154,0,0,0,.361.56,1,1,0,0,0,.675.208,1.047,1.047,0,0,0,.736-.245A1.024,1.024,0,0,0,72.5,188a1.442,1.442,0,0,0-.231-.811,4.357,4.357,0,0,0-.638-.724l-1.246-1.2a2.308,2.308,0,0,1-.493-.672,1.82,1.82,0,0,1-.156-.759,1.443,1.443,0,0,1,.439-1.131,1.679,1.679,0,0,1,1.154-.4,2.236,2.236,0,0,1,.678.1,1.255,1.255,0,0,1,.519.312,1.515,1.515,0,0,1,.338.557,3.543,3.543,0,0,1,.167.831l-.577.15a3.188,3.188,0,0,0-.144-.767.955.955,0,0,0-.343-.485,1.073,1.073,0,0,0-.643-.167,1.093,1.093,0,0,0-.718.228.866.866,0,0,0-.289.71,1.238,1.238,0,0,0,.11.525,1.835,1.835,0,0,0,.421.516L72.1,186a4.5,4.5,0,0,1,.73.866,2,2,0,0,1,.306,1.088,1.769,1.769,0,0,1-.208.894,1.3,1.3,0,0,1-.577.54,1.93,1.93,0,0,1-.845.185Z" transform="translate(-61.987 -156.318)" fill="#263238" stroke="#263238" stroke-linecap="round" stroke-linejoin="round" stroke-width="0.5"/>
      <path id="Path_54351" data-name="Path 54351" d="M84.6,189.663v-7.1h2.568v.516H85.275v2.666h1.544v.49H85.275v2.928h1.913v.5Z" transform="translate(-72.567 -156.499)" fill="#263238" stroke="#263238" stroke-linecap="round" stroke-linejoin="round" stroke-width="0.5"/>
      <path id="Path_54352" data-name="Path 54352" d="M96.73,189.657v-7.1h1.6a2.164,2.164,0,0,1,1.047.214,1.232,1.232,0,0,1,.548.623,2.524,2.524,0,0,1,.167.969,2.958,2.958,0,0,1-.089.744,1.422,1.422,0,0,1-.289.6,1.016,1.016,0,0,1-.6.323l1.088,3.632H99.56l-1.042-3.491H97.385v3.491Zm.655-3.982h.9a1.327,1.327,0,0,0,.692-.15.808.808,0,0,0,.349-.439,2.1,2.1,0,0,0,.107-.727,1.714,1.714,0,0,0-.228-.984,1.043,1.043,0,0,0-.9-.323h-.92Z" transform="translate(-81.197 -156.493)" fill="#263238" stroke="#263238" stroke-linecap="round" stroke-linejoin="round" stroke-width="0.5"/>
      <path id="Path_54353" data-name="Path 54353" d="M112.35,189.663v-7.1h.666v7.1Z" transform="translate(-92.31 -156.499)" fill="#263238" stroke="#263238" stroke-linecap="round" stroke-linejoin="round" stroke-width="0.5"/>
      <path id="Path_54354" data-name="Path 54354" d="M119.275,189.663l-1.665-7.1h.641l1.342,5.9,1.261-5.883h.62l-1.6,7.1Z" transform="translate(-96.052 -156.499)" fill="#263238" stroke="#263238" stroke-linecap="round" stroke-linejoin="round" stroke-width="0.5"/>
      <path id="Path_54355" data-name="Path 54355" d="M134,189.663v-7.1h.666v7.1Z" transform="translate(-107.714 -156.499)" fill="#263238" stroke="#263238" stroke-linecap="round" stroke-linejoin="round" stroke-width="0.5"/>
      <path id="Path_54356" data-name="Path 54356" d="M141.926,189.559a1.789,1.789,0,0,1-1.108-.289,1.509,1.509,0,0,1-.54-.8,3.892,3.892,0,0,1-.15-1.119v-2.833a4,4,0,0,1,.153-1.154,1.46,1.46,0,0,1,.548-.779,1.861,1.861,0,0,1,1.1-.289,1.8,1.8,0,0,1,1,.245,1.371,1.371,0,0,1,.522.7,3.312,3.312,0,0,1,.159,1.073v.43h-.635v-.41a3.751,3.751,0,0,0-.075-.8.865.865,0,0,0-.3-.516,1.053,1.053,0,0,0-.675-.185,1.125,1.125,0,0,0-.716.2.99.99,0,0,0-.323.557,3.77,3.77,0,0,0-.084.834v3.027a3.273,3.273,0,0,0,.1.866.932.932,0,0,0,.343.534,1.154,1.154,0,0,0,.675.176,1.036,1.036,0,0,0,.675-.193.935.935,0,0,0,.3-.54,3.938,3.938,0,0,0,.075-.811v-.465h.632v.421a3.809,3.809,0,0,1-.147,1.105,1.379,1.379,0,0,1-.508.747A1.711,1.711,0,0,1,141.926,189.559Z" transform="translate(-112.074 -156.308)" fill="#263238" stroke="#263238" stroke-linecap="round" stroke-linejoin="round" stroke-width="0.5"/>
      <path id="Path_54357" data-name="Path 54357" d="M155.78,189.663v-7.1h2.571v.516h-1.9v2.666H158v.49h-1.544v2.928h1.913v.5Z" transform="translate(-123.21 -156.499)" fill="#263238" stroke="#263238" stroke-linecap="round" stroke-linejoin="round" stroke-width="0.5"/>
    </g>
    <g id="freepik--Character--inject-80" transform="translate(1314.82 4010.186)">
      <path id="Path_54358" data-name="Path 54358" d="M313.427,320.17h15.456s-8.367,20.574-6.789,29.764H306.43S309.353,326.437,313.427,320.17Z" transform="translate(-263.896 -274.851)" fill="#263238" stroke="#263238" stroke-linecap="round" stroke-linejoin="round" stroke-width="0.5"/>
      <path id="Path_54359" data-name="Path 54359" d="M273.424,216.893s.153,2.784,5.338,4.409,10.447,0,13.387,2.308A6.193,6.193,0,0,1,294,231.27c-1.007,1.78-2.631,3.557,2.167,5.646s1.933,8.2-.078,10.447-5.482,3.327-9.363,2.553-8.433-10.136-13.384-15.09-5.557-14.091-2.4-16.711S273.424,216.893,273.424,216.893Z" transform="translate(-237.266 -201.107)" fill="#263238" stroke="#263238" stroke-linecap="round" stroke-linejoin="round" stroke-width="0.5"/>
      <path id="Path_54360" data-name="Path 54360" d="M279.122,182.5s2.135-.932,2.683.866a41.148,41.148,0,0,1,.71,6.737l-1.154-.274s.274-5.586-.987-6.463-2.245,1.1-2.245,1.1Z" transform="translate(-243.761 -176.733)" fill="#a6a6a6" stroke="#263238" stroke-linecap="round" stroke-linejoin="round" stroke-width="0.5"/>
      <path id="Path_54361" data-name="Path 54361" d="M198.5,324.529l7.294-3.9s-.5-7.654-.433-7.943,1.9-15.266,1.9-15.266l-5,14.833Z" transform="translate(-187.106 -258.665)" fill="#263238" stroke="#263238" stroke-linecap="round" stroke-linejoin="round" stroke-width="0.5"/>
      <path id="Path_54362" data-name="Path 54362" d="M229.749,262.308s7.213,3.93,8.182,4.328.4,5.41.4,8.684-4.9,30.929-4.9,30.929H197.1s6.137-9.409,6.3-11.864-.9-4.42-1.065-6.792,3.355-16.858,3.927-17.6a27.657,27.657,0,0,1,3.029-2.617l8.673-7.6,4.01-.9Z" transform="translate(-186.11 -231.245)" fill="#407bff" stroke="#263238" stroke-linecap="round" stroke-linejoin="round" stroke-width="0.5"/>
      <line id="Line_411" data-name="Line 411" x1="1.212" y2="2.493" transform="translate(18.353 65.801)" fill="none" stroke="#263238" stroke-linecap="round" stroke-linejoin="round" stroke-width="0.5"/>
      <path id="Path_54363" data-name="Path 54363" d="M228.009,366.34s-1.8,1.226-.9,1.881a4.452,4.452,0,0,1,1.31,2.046l-1.154,2.248" transform="translate(-207.281 -307.7)" fill="none" stroke="#263238" stroke-linecap="round" stroke-linejoin="round" stroke-width="0.5"/>
      <path id="Path_54364" data-name="Path 54364" d="M260.24,387c.488.038,1,.066,1.538.081" transform="translate(-231.033 -322.399)" fill="none" stroke="#263238" stroke-linecap="round" stroke-linejoin="round" stroke-width="0.5"/>
      <path id="Path_54365" data-name="Path 54365" d="M233.39,380a15.7,15.7,0,0,0,6.226,1.87" transform="translate(-211.93 -317.419)" fill="none" stroke="#263238" stroke-linecap="round" stroke-linejoin="round" stroke-width="0.5"/>
      <path id="Path_54366" data-name="Path 54366" d="M213.766,198.39a1.953,1.953,0,0,0-1.093,1.861,16.054,16.054,0,0,0,1.154,4.215l.658-.216s-1.2-2.9-1.039-3.944a1.679,1.679,0,0,1,1.154-1.313l-.219-.713Z" transform="translate(-197.188 -188.129)" fill="#a6a6a6" stroke="#263238" stroke-linecap="round" stroke-linejoin="round" stroke-width="0.5"/>
      <path id="Path_54367" data-name="Path 54367" d="M218.228,218.334c.288,1.443-.2,2.744-1.082,2.914s-1.812-.866-2.089-2.308.2-2.747,1.082-2.914S217.951,216.895,218.228,218.334Z" transform="translate(-198.831 -200.742)" fill="#fff" stroke="#263238" stroke-linecap="round" stroke-linejoin="round" stroke-width="0.5"/>
      <path id="Path_54368" data-name="Path 54368" d="M223.076,215.826c.545,1.841-.092,3.656-1.425,4.039s-2.856-.776-3.4-2.617.092-3.656,1.425-4.039S222.531,213.985,223.076,215.826Z" transform="translate(-201.016 -198.699)" fill="#263238" stroke="#263238" stroke-linecap="round" stroke-linejoin="round" stroke-width="0.5"/>
      <path id="Path_54369" data-name="Path 54369" d="M242.488,236.009l1.3,4.212-4.259,5.366-.71,4.146s-.707,11.829-.3,13.653a14.052,14.052,0,0,1,.4,2.325s8.8-10.214,13.148-16.483,5.358-10.115,5.358-10.115l-4.247-2.308-2.02-9.406Z" transform="translate(-215.486 -208.847)" fill="#fff" stroke="#263238" stroke-linecap="round" stroke-linejoin="round" stroke-width="0.5"/>
      <path id="Path_54370" data-name="Path 54370" d="M258.783,243.11l-5.421,8.289-1.512-4.879Z" transform="translate(-225.064 -220.025)" fill="#263238" stroke="#263238" stroke-linecap="round" stroke-linejoin="round" stroke-width="0.5"/>
      <path id="Path_54371" data-name="Path 54371" d="M238.846,299.809l-.04.234s-.707,11.829-.3,13.653a14.053,14.053,0,0,1,.4,2.326s8.8-10.214,13.148-16.483c.34-.491.658-.967.961-1.428A37.929,37.929,0,0,1,238.846,299.809Z" transform="translate(-215.479 -259.156)" fill="#fff" stroke="#263238" stroke-linecap="round" stroke-linejoin="round" stroke-width="0.5"/>
      <path id="Path_54372" data-name="Path 54372" d="M221.341,164.434s-4.054,2.464-4.492,6.186,1.1,7.721,1.7,9.308,2.683,7.776,3.777,8.982,4.654,3.009,5.257,3.338a2.705,2.705,0,0,0,2.628-.439,43.7,43.7,0,0,0,5.366-6.405,10.782,10.782,0,0,0,.71-3.506s-.11-4.818-.326-7.937-.055-6.134-2.628-8.762S223.86,162.515,221.341,164.434Z" transform="translate(-200.106 -163.097)" fill="#fff" stroke="#263238" stroke-linecap="round" stroke-linejoin="round" stroke-width="0.5"/>
      <path id="Path_54373" data-name="Path 54373" d="M235.961,173.961c-.219-3.122-.055-6.134-2.628-8.762s-9.472-2.683-11.991-.765c0,0-4.054,2.464-4.492,6.186a16.724,16.724,0,0,0,.664,6.238c.932-.577,4.077-2.5,7.605-4.977a15.71,15.71,0,0,0,5.586-7.556s.49-.274.384.329a19.907,19.907,0,0,1-2.354,4.709l-.6.545s.493-.11,2.738,2.574,3.5,3.78,4.16,4.109a3.578,3.578,0,0,0,1.088.211C236.074,175.816,236.022,174.823,235.961,173.961Z" transform="translate(-200.107 -163.097)" fill="#263238" stroke="#263238" stroke-linecap="round" stroke-linejoin="round" stroke-width="0.5"/>
      <path id="Path_54374" data-name="Path 54374" d="M257.632,219.257c.069.4-.078.765-.332.808s-.514-.245-.577-.646.078-.765.332-.811S257.559,218.856,257.632,219.257Z" transform="translate(-228.52 -202.589)" fill="#263238" stroke="#263238" stroke-linecap="round" stroke-linejoin="round" stroke-width="0.5"/>
      <path id="Path_54375" data-name="Path 54375" d="M236.381,222.294c.072.4-.075.765-.329.811s-.516-.245-.577-.649.075-.762.329-.808S236.311,221.893,236.381,222.294Z" transform="translate(-213.403 -204.751)" fill="#263238" stroke="#263238" stroke-linecap="round" stroke-linejoin="round" stroke-width="0.5"/>
      <path id="Path_54376" data-name="Path 54376" d="M251.2,210.54s1.809-1.422,3.462-.274" transform="translate(-224.601 -196.338)" fill="none" stroke="#263238" stroke-linecap="round" stroke-linejoin="round" stroke-width="0.5"/>
      <path id="Path_54377" data-name="Path 54377" d="M229.575,214.285a3,3,0,0,0-3.615.822" transform="translate(-206.643 -199.309)" fill="none" stroke="#263238" stroke-linecap="round" stroke-linejoin="round" stroke-width="0.5"/>
      <path id="Path_54378" data-name="Path 54378" d="M239.82,215.17a2.909,2.909,0,0,1,1.587,2.08" transform="translate(-216.505 -200.146)" fill="none" stroke="#263238" stroke-linecap="round" stroke-linejoin="round" stroke-width="0.5"/>
      <path id="Path_54379" data-name="Path 54379" d="M245.51,235.48a1.91,1.91,0,0,0,1.642.11" transform="translate(-220.553 -214.596)" fill="none" stroke="#263238" stroke-linecap="round" stroke-linejoin="round" stroke-width="0.5"/>
      <path id="Path_54380" data-name="Path 54380" d="M244,236.563a9.992,9.992,0,0,0,3.56-.822,6.333,6.333,0,0,0,2.683-1.971" transform="translate(-219.479 -213.379)" fill="none" stroke="#263238" stroke-linecap="round" stroke-linejoin="round" stroke-width="0.5"/>
      <path id="Path_54381" data-name="Path 54381" d="M247.22,240.421a2.392,2.392,0,0,0,1.587.6c.987,0,1.861-1.751,1.861-1.751A17.605,17.605,0,0,1,247.22,240.421Z" transform="translate(-221.769 -217.292)" fill="none" stroke="#263238" stroke-linecap="round" stroke-linejoin="round" stroke-width="0.5"/>
      <ellipse id="Ellipse_10616" data-name="Ellipse 10616" cx="2.519" cy="3.477" rx="2.519" ry="3.477" transform="translate(34.32 12.122)" fill="#263238" stroke="#263238" stroke-linecap="round" stroke-linejoin="round" stroke-width="0.5"/>
      <ellipse id="Ellipse_10617" data-name="Ellipse 10617" cx="1.616" cy="2.654" rx="1.616" ry="2.654" transform="translate(36.29 12.344)" fill="#fff" stroke="#263238" stroke-linecap="round" stroke-linejoin="round" stroke-width="0.5"/>
      <path id="Path_54382" data-name="Path 54382" d="M222.49,230s.017,5.69,1.495,6.183,5.531-.493,5.531-.493" transform="translate(-204.175 -210.697)" fill="none" stroke="#263238" stroke-linecap="round" stroke-linejoin="round" stroke-width="0.5"/>
      <path id="Path_54383" data-name="Path 54383" d="M248.109,247.683c0,.439-.54.793-1.206.793s-1.2-.355-1.2-.793.54-.793,1.2-.793S248.109,247.245,248.109,247.683Z" transform="translate(-220.688 -222.714)" fill="#263238" stroke="#263238" stroke-linecap="round" stroke-linejoin="round" stroke-width="0.5"/>
      <path id="Path_54384" data-name="Path 54384" d="M236.22,272.75s-1.731,3.027-2.946,12.028-.41,10.8-.41,10.8l-1.731,1.065s-3.6-.41-2.372-8.918,1.907-9.9,1.907-9.9Z" transform="translate(-208.455 -241.113)" fill="#407bff" stroke="#263238" stroke-linecap="round" stroke-linejoin="round" stroke-width="0.5"/>
      <path id="Path_54385" data-name="Path 54385" d="M249.669,262s-3.927,9.328-8.018,15.139S232,291.285,232,291.285a62.494,62.494,0,0,0,9.166-6.059c6.22-4.668,12.519-15.384,13.174-16.446a32.4,32.4,0,0,0,1.636-3.517Z" transform="translate(-210.941 -233.464)" fill="#407bff" stroke="#263238" stroke-linecap="round" stroke-linejoin="round" stroke-width="0.5"/>
      <path id="Path_54386" data-name="Path 54386" d="M163.747,400.268a20.375,20.375,0,0,1-3.009,1.506c-1.841.753-2.02.62-1.422,1.255s3.682-.5,4.518-.837,2.426-.837,2.426-.837a19.491,19.491,0,0,0,3.1,1.422,5.006,5.006,0,0,0,2.6-.167,2.611,2.611,0,0,0-.92-2.092c-1-.753-3.174-2.51-3.933-2.426S163.747,400.268,163.747,400.268Z" transform="translate(-159.01 -330.29)" fill="#fff" stroke="#263238" stroke-linecap="round" stroke-linejoin="round" stroke-width="0.5"/>
      <path id="Path_54387" data-name="Path 54387" d="M165.8,398.525a2.239,2.239,0,0,0-1.673.251,6.251,6.251,0,0,0-1.506,2.51c-.084.418.084.669.753.084s1.841-1.422,1.841-1.422l1-.335Z" transform="translate(-161.565 -330.555)" fill="#fff" stroke="#263238" stroke-linecap="round" stroke-linejoin="round" stroke-width="0.5"/>
      <path id="Path_54388" data-name="Path 54388" d="M173,395.271s-2.02-.669-2.426-.084-1.841,3.933-1.422,4.184,1-.251,1.757-1.339,1.171-1.673,1.171-1.673l1-.167Z" transform="translate(-166.173 -328.054)" fill="#fff" stroke="#263238" stroke-linecap="round" stroke-linejoin="round" stroke-width="0.5"/>
      <path id="Path_54389" data-name="Path 54389" d="M179.5,394.648s-2.617-2.046-3.272-1.555a21.949,21.949,0,0,0-3.027,4.328c-.245.646.9.329,1.8-.49s1.965-1.731,1.965-1.731L179,396.264Z" transform="translate(-169.08 -326.68)" fill="#fff" stroke="#263238" stroke-linecap="round" stroke-linejoin="round" stroke-width="0.5"/>
      <path id="Path_54390" data-name="Path 54390" d="M191.09,398.8a25.2,25.2,0,0,1-4.827-.655c-1.391-.49-4.175-1.555-4.991-1.474s-3.93,3.11-4.585,3.765-.577.831.066.912,2.224-.993,2.963-1.567a8.083,8.083,0,0,1,1.471-.9,18.378,18.378,0,0,0,1.965,2.375,6.323,6.323,0,0,0,3.517,1.226,11.537,11.537,0,0,0,1.391-.245l2.784-.081Z" transform="translate(-171.263 -329.276)" fill="#fff" stroke="#263238" stroke-linecap="round" stroke-linejoin="round" stroke-width="0.5"/>
      <path id="Path_54391" data-name="Path 54391" d="M249.986,292.443s-3.027,3.517-2.862,4.746.245,2.452.245,2.452l-2.21,13.338s-1.881-.9-1.881-.164v.739l-17.683,1.8-.164,6.218,28.148.081a10.973,10.973,0,0,0,1.555-2.126,106.879,106.879,0,0,0,4.091-20.866c.819-10.392.41-15.055,0-15.869s-5.237-2.372-5.237-2.372" transform="translate(-206.266 -246.57)" fill="#407bff" stroke="#263238" stroke-linecap="round" stroke-linejoin="round" stroke-width="0.5"/>
      <path id="Path_54392" data-name="Path 54392" d="M296.08,393a20.138,20.138,0,0,0,4.172,2.126" transform="translate(-256.532 -326.668)" fill="#fff" stroke="#263238" stroke-linecap="round" stroke-linejoin="round" stroke-width="0.5"/>
      <path id="Path_54393" data-name="Path 54393" d="M202.79,283.992l2.02-6.483a13.978,13.978,0,0,0,2.135-2.68,8.85,8.85,0,0,0,.73-4.694c-.136-.488,1.769-2.68,2.308-3.462a2.962,2.962,0,0,0,.121-3.231c-.73-1.036-1.1.672-1.584,1.463a6.553,6.553,0,0,1-2.2,1.584l-1.8,1.466s-2.986,2.62-3.174,2.986a16.091,16.091,0,0,0-.548,1.523l.245,3.534-1.584,6.154Z" transform="translate(-187.789 -234.259)" fill="#fff" stroke="#263238" stroke-linecap="round" stroke-linejoin="round" stroke-width="0.5"/>
      <path id="Path_54394" data-name="Path 54394" d="M212.73,256.416s1.463-2.308,1.89-3.047,1.1-3.656,1.523-3.462a2.55,2.55,0,0,1,.733,2.438,18.93,18.93,0,0,1-1.647,4.2Z" transform="translate(-197.231 -224.854)" fill="none" stroke="#263238" stroke-linecap="round" stroke-linejoin="round" stroke-width="0.5"/>
      <path id="Path_54395" data-name="Path 54395" d="M200.48,285.343l1.281-4.328-.554-6.948,1.705-3.289,4.691-.609s2.865,1.523,3.11,1.523,0,.669-.548.791a4.4,4.4,0,0,1-1.587-.182l1.769,1.154s-.121.548-.548.669a6.289,6.289,0,0,1-1.281.124s1.523.975,1.154,1.154a2.663,2.663,0,0,1-1.154.242h-1.154l-.915-.121-1.4.548a13.3,13.3,0,0,1,.915,3.719c-.061,1.22-1.584,2.02-1.584,2.02" transform="translate(-188.515 -239.277)" fill="#fff" stroke="#263238" stroke-linecap="round" stroke-linejoin="round" stroke-width="0.5"/>
      <path id="Path_54396" data-name="Path 54396" d="M215.2,275.6a3.76,3.76,0,0,0-1.523-.793c-.548,0-3.9.609-3.9.609" transform="translate(-195.132 -242.578)" fill="none" stroke="#263238" stroke-linecap="round" stroke-linejoin="round" stroke-width="0.5"/>
      <path id="Path_54397" data-name="Path 54397" d="M212.579,282.186a8.773,8.773,0,0,0-2.072-.866c-.488,0-4.328.975-4.328.975" transform="translate(-192.57 -247.21)" fill="none" stroke="#263238" stroke-linecap="round" stroke-linejoin="round" stroke-width="0.5"/>
      <path id="Path_54398" data-name="Path 54398" d="M181.166,318.05l4.948,3.332s-2.2,11.829-2.421,12.842a14.806,14.806,0,0,1-2.6,4.478c-.793.8-1.731.649-3.9.072s-4.039-2.308-3.973-4.55S181.166,318.05,181.166,318.05Z" transform="translate(-169.123 -273.343)" fill="#407bff" stroke="#263238" stroke-linecap="round" stroke-linejoin="round" stroke-width="0.5"/>
    </g>
    <g id="freepik--Device--inject-80" transform="translate(1276.525 4043.182)">
      <rect id="Rectangle_2765" data-name="Rectangle 2765" width="1.437" height="0.441" transform="translate(23.327 40.381)" fill="#fff" stroke="#263238" stroke-linecap="round" stroke-linejoin="round" stroke-width="0.5"/>
      <rect id="Rectangle_2766" data-name="Rectangle 2766" width="1.437" height="0.441" transform="translate(25.318 40.381)" fill="#fff" stroke="#263238" stroke-linecap="round" stroke-linejoin="round" stroke-width="0.5"/>
      <rect id="Rectangle_2767" data-name="Rectangle 2767" width="1.437" height="0.441" transform="translate(27.308 40.381)" fill="#fff" stroke="#263238" stroke-linecap="round" stroke-linejoin="round" stroke-width="0.5"/>
      <rect id="Rectangle_2768" data-name="Rectangle 2768" width="1.437" height="0.441" transform="translate(29.302 40.381)" fill="#fff" stroke="#263238" stroke-linecap="round" stroke-linejoin="round" stroke-width="0.5"/>
      <rect id="Rectangle_2769" data-name="Rectangle 2769" width="1.437" height="0.441" transform="translate(31.293 40.381)" fill="#fff" stroke="#263238" stroke-linecap="round" stroke-linejoin="round" stroke-width="0.5"/>
      <rect id="Rectangle_2770" data-name="Rectangle 2770" width="1.437" height="0.441" transform="translate(33.284 40.381)" fill="#fff" stroke="#263238" stroke-linecap="round" stroke-linejoin="round" stroke-width="0.5"/>
      <rect id="Rectangle_2771" data-name="Rectangle 2771" width="1.437" height="0.441" transform="translate(35.274 40.381)" fill="#fff" stroke="#263238" stroke-linecap="round" stroke-linejoin="round" stroke-width="0.5"/>
      <rect id="Rectangle_2772" data-name="Rectangle 2772" width="1.437" height="0.441" transform="translate(37.265 40.381)" fill="#fff" stroke="#263238" stroke-linecap="round" stroke-linejoin="round" stroke-width="0.5"/>
      <rect id="Rectangle_2773" data-name="Rectangle 2773" width="1.437" height="0.441" transform="translate(39.256 40.381)" fill="#fff" stroke="#263238" stroke-linecap="round" stroke-linejoin="round" stroke-width="0.5"/>
      <rect id="Rectangle_2774" data-name="Rectangle 2774" width="1.437" height="0.441" transform="translate(41.247 40.381)" fill="#fff" stroke="#263238" stroke-linecap="round" stroke-linejoin="round" stroke-width="0.5"/>
      <rect id="Rectangle_2775" data-name="Rectangle 2775" width="1.437" height="0.441" transform="translate(43.241 40.381)" fill="#fff" stroke="#263238" stroke-linecap="round" stroke-linejoin="round" stroke-width="0.5"/>
      <rect id="Rectangle_2776" data-name="Rectangle 2776" width="1.437" height="0.441" transform="translate(45.231 40.381)" fill="#fff" stroke="#263238" stroke-linecap="round" stroke-linejoin="round" stroke-width="0.5"/>
      <rect id="Rectangle_2777" data-name="Rectangle 2777" width="1.437" height="0.441" transform="translate(47.222 40.381)" fill="#fff" stroke="#263238" stroke-linecap="round" stroke-linejoin="round" stroke-width="0.5"/>
      <rect id="Rectangle_2778" data-name="Rectangle 2778" width="1.437" height="0.441" transform="translate(49.213 40.381)" fill="#fff" stroke="#263238" stroke-linecap="round" stroke-linejoin="round" stroke-width="0.5"/>
      <rect id="Rectangle_2779" data-name="Rectangle 2779" width="1.437" height="0.441" transform="translate(51.204 40.381)" fill="#fff" stroke="#263238" stroke-linecap="round" stroke-linejoin="round" stroke-width="0.5"/>
      <rect id="Rectangle_2780" data-name="Rectangle 2780" width="1.437" height="0.441" transform="translate(53.194 40.381)" fill="#fff" stroke="#263238" stroke-linecap="round" stroke-linejoin="round" stroke-width="0.5"/>
      <rect id="Rectangle_2781" data-name="Rectangle 2781" width="35.601" height="1.252" transform="translate(22.502 40.73)" fill="#fff" stroke="#263238" stroke-linecap="round" stroke-linejoin="round" stroke-width="0.5"/>
      <rect id="Rectangle_2782" data-name="Rectangle 2782" width="13.647" height="1.252" transform="translate(44.452 40.73)" fill="#fff" stroke="#263238" stroke-linecap="round" stroke-linejoin="round" stroke-width="0.5"/>
      <path id="Path_54399" data-name="Path 54399" d="M59.89,307.224H31.9L26.28,277.46H54.269Z" transform="translate(-26.28 -277.46)" fill="#263238" stroke="#fff" stroke-linecap="round" stroke-linejoin="round" stroke-width="0.5"/>
      <path id="Path_54400" data-name="Path 54400" d="M59.707,308.328H32.555L27.22,280.07H54.37Z" transform="translate(-26.949 -279.317)" fill="#263238" stroke="#fff" stroke-linecap="round" stroke-linejoin="round" stroke-width="0.5"/>
      <path id="Path_54401" data-name="Path 54401" d="M62.135,318.407H41.947L37.98,297.4H58.168Z" transform="translate(-34.604 -291.647)" fill="#263238" stroke="#fff" stroke-linecap="round" stroke-linejoin="round" stroke-width="0.5"/>
      <line id="Line_412" data-name="Line 412" x1="3.104" y1="5" transform="translate(0.271 0.753)" fill="none" stroke="#263238" stroke-linecap="round" stroke-linejoin="round" stroke-width="0.5"/>
      <line id="Line_413" data-name="Line 413" y1="5" x2="3.858" transform="translate(23.563 0.753)" fill="#263238" stroke="#fff" stroke-linecap="round" stroke-linejoin="round" stroke-width="0.5"/>
      <line id="Line_414" data-name="Line 414" x2="5.228" y2="2.25" transform="translate(27.531 26.76)" fill="#263238" stroke="#fff" stroke-linecap="round" stroke-linejoin="round" stroke-width="0.5"/>
      <line id="Line_415" data-name="Line 415" x1="1.737" y2="2.25" transform="translate(5.606 26.76)" fill="#fff" stroke="#263238" stroke-linecap="round" stroke-linejoin="round" stroke-width="0.5"/>
      <path id="Path_54402" data-name="Path 54402" d="M68.846,341.968h-4.6l2.926-2.608h4.6Z" transform="translate(-53.295 -321.501)" fill="#263238" stroke="#fff" stroke-linecap="round" stroke-linejoin="round" stroke-width="0.5"/>
      <rect id="Rectangle_2783" data-name="Rectangle 2783" width="16.815" height="1.671" transform="translate(13.985 40.416)" fill="#263238" stroke="#fff" stroke-linecap="round" stroke-linejoin="round" stroke-width="0.5"/>
      <path id="Path_54403" data-name="Path 54403" d="M74.487,407.528h-4.6L64.25,401.12h4.6Z" transform="translate(-53.295 -365.442)" fill="#263238" stroke="#fff" stroke-linecap="round" stroke-linejoin="round" stroke-width="0.5"/>
      <rect id="Rectangle_2784" data-name="Rectangle 2784" width="4.596" height="15.038" transform="translate(10.955 20.574)" fill="#263238" stroke="#fff" stroke-linecap="round" stroke-linejoin="round" stroke-width="0.5"/>
    </g>
    <g id="freepik--Table--inject-80" transform="translate(1273 4082.409)">
      <path id="Path_54404" data-name="Path 54404" d="M313.41,413.42a6.829,6.829,0,0,0,2.865,2.781" transform="translate(-227.041 -413.42)" fill="#fff" stroke="#263238" stroke-linecap="round" stroke-linejoin="round" stroke-width="0.5"/>
      <line id="Line_416" data-name="Line 416" x2="131.626" transform="translate(0 2.859)" fill="none" stroke="#263238" stroke-linecap="round" stroke-linejoin="round" stroke-width="0.5"/>
    </g>
  </g>
</svg>
