<svg xmlns="http://www.w3.org/2000/svg" width="119.477" height="124.429" viewBox="0 0 119.477 124.429">
  <g id="Wallet-bro" transform="translate(-42.2 -40.078)">
    <g id="freepik--background-simple--inject-255" transform="translate(42.2 40.077)">
      <path id="Path_54405" data-name="Path 54405" d="M123.522,40.081c-10.56.181-18.7,8.816-27.741,14.278C82.131,62.607,64.6,64.282,53.07,75.3a36.636,36.636,0,0,0-10.686,29.79,40.979,40.979,0,0,0,15.7,27.744c5.5,4.266,11.96,7.143,18.55,9.4a67.136,67.136,0,0,0,20.69,4.056c9.78.123,19.387-2.834,28.235-7.008a60.363,60.363,0,0,0,16.926-11.228,47.333,47.333,0,0,0,10.48-16.025c5.936-14.734,4.992-31.623-.155-46.652C148.549,52.942,138.141,39.829,123.522,40.081Z" transform="translate(-42.2 -40.077)" fill="#407bff"/>
      <path id="Path_54406" data-name="Path 54406" d="M123.522,40.081c-10.56.181-18.7,8.816-27.741,14.278C82.131,62.607,64.6,64.282,53.07,75.3a36.636,36.636,0,0,0-10.686,29.79,40.979,40.979,0,0,0,15.7,27.744c5.5,4.266,11.96,7.143,18.55,9.4a67.136,67.136,0,0,0,20.69,4.056c9.78.123,19.387-2.834,28.235-7.008a60.363,60.363,0,0,0,16.926-11.228,47.333,47.333,0,0,0,10.48-16.025c5.936-14.734,4.992-31.623-.155-46.652C148.549,52.942,138.141,39.829,123.522,40.081Z" transform="translate(-42.2 -40.077)" fill="#fff" opacity="0.7"/>
    </g>
    <g id="freepik--Wallet--inject-255" transform="translate(47.918 75.181)">
      <path id="Path_54407" data-name="Path 54407" d="M149.515,194.643c-.075-2.16-.215-4.464-.448-6.848-.313-4.762-.909-9.209-1.991-12.006h0c-5.956-1.219-36.9,1.053-36.919,1.053l-.192-.861-.077-.341-.138-.6-.037-.138c-.2-.809-.427-1.609-.691-2.4h0s-23.455-2.094-31.235-.063h0v.2l.023,1.919c.023,3.715-.063,7.2.129,11.028v.029h0a.628.628,0,0,0-.112,0,1.65,1.65,0,0,0-1.34,1.087h0a1.644,1.644,0,0,0-.083.694l.1,1.208v.057c.287,3.047.574,6.065.574,6.065h0s.149.014.393.026l1.288.092c-2.743.252-5.738,3.873-5.606,6.986s-2.869,8.974-2.12,12.336c.574,2.628,3.526,6.854,4.963,10.064l-.112.637L69.47,237.753c.43-.631,4.3,16.209,22.291,12.643l12.8-20.85h0a24.687,24.687,0,0,0,3.9-3.663,6.372,6.372,0,0,0,1.208-1.67h0a8.922,8.922,0,0,0,1.036-2.352c.057-.218.118-.433.181-.654,1.044-2.659,2.438-6.288,3.46-8.8,13.483-.4,27.641-1.225,34.75-2.9h.014A74.973,74.973,0,0,0,149.515,194.643ZM80.271,206.425a20.709,20.709,0,0,1-.2-2.344c.158.826.33,1.65.511,2.476C80.478,206.512,80.374,206.466,80.271,206.425Z" transform="translate(-67.364 -168.936)" opacity="0.1"/>
      <path id="Path_54408" data-name="Path 54408" d="M64.36,284.039s5.761,17.032,23.756,13.466c0,0,3.993-18.748,7.338-21.516,2.157-1.779,6.922-4.969,7.941-7.278s5.109-13.277,5.9-14.6-8.583-16.5-8.583-16.5L80.965,247.8,69.977,267.308S67.869,279.93,64.36,284.039Z" transform="translate(-63.72 -216.045)" fill="#fff"/>
      <path id="Path_54409" data-name="Path 54409" d="M68.195,346.43s-1.409,10.531-6.065,16.034" transform="translate(-62.13 -293.647)" fill="none" stroke="#263238" stroke-linecap="round" stroke-linejoin="round" stroke-width="0.5"/>
      <path id="Path_54410" data-name="Path 54410" d="M147.17,344.977s3.97-18.139,7.338-21.516c0,0,7.608-4.424,8.979-9.631a73.7,73.7,0,0,1,3.5-9.651" transform="translate(-122.774 -263.518)" fill="none" stroke="#263238" stroke-linecap="round" stroke-linejoin="round" stroke-width="0.5"/>
      <path id="Path_54411" data-name="Path 54411" d="M152.72,306.195c-.287-.184,4.6,3.729,4.794,9.077" transform="translate(-126.723 -264.95)" fill="none" stroke="#263238" stroke-linecap="round" stroke-linejoin="round" stroke-width="0.5"/>
      <path id="Path_54412" data-name="Path 54412" d="M157.392,200.405c-15.859,3.729-66.935,3.239-66.935,3.239a32.941,32.941,0,0,1-1.452-5.835c-1-5.31-1.942-12.078-1.942-12.078l-1.69-.118s-.287-3.018-.574-6.065,1.434-3.044,1.434-3.044l-.123-10.546-.032-2.634c7.78-2.031,31.235.063,31.235.063l.732,2.542.407,1.8,36.916-1.041C158.754,175.444,157.392,200.405,157.392,200.405Z" transform="translate(-78.273 -162.439)" fill="#407bff"/>
      <rect id="Rectangle_2786" data-name="Rectangle 2786" width="27.856" height="8.54" rx="4.27" transform="translate(46.968 13.684) rotate(-2.862)" fill="#263238"/>
      <path id="Path_54413" data-name="Path 54413" d="M254.374,246.54l.077.818-27.879,1.079-.023-.734Z" transform="translate(-179.381 -222.413)" fill="#263238"/>
      <path id="Path_54414" data-name="Path 54414" d="M254.726,256.45l.026.734-27.876,1.03-.026-.732Z" transform="translate(-179.595 -229.48)" fill="#263238"/>
      <path id="Path_54415" data-name="Path 54415" d="M239.079,176.36s4.114,19.508,2.028,33.714c0,0-26.014,3.052-34.922,2.559l-.364-4.748.746-.115s-3.592-27.1-4.406-30.369C202.16,177.4,233.14,175.138,239.079,176.36Z" transform="translate(-161.988 -172.108)" opacity="0.3"/>
      <path id="Path_54416" data-name="Path 54416" d="M139.646,286.91l.307,3.589s-26.221,1.148-28.527.313.123-2.166,6.222-2.645S139.646,286.91,139.646,286.91Z" transform="translate(-96.672 -251.202)" fill="#fff" opacity="0.8"/>
      <ellipse id="Ellipse_10618" data-name="Ellipse 10618" cx="2.395" cy="2.169" rx="2.395" ry="2.169" transform="translate(24.924 16.149)" fill="#263238"/>
      <path id="Path_54417" data-name="Path 54417" d="M92.77,195.685A92.947,92.947,0,0,0,96.161,213.6c11.122-.095,22.242-.218,33.361-.574a313.533,313.533,0,0,0,33.565-2.665s1.974-17.431-2.028-33.714c-4.424-.921-36.8,1.036-36.8,1.036" transform="translate(-83.98 -172.396)" fill="none" stroke="#263238" stroke-linecap="round" stroke-linejoin="round" stroke-width="0.5"/>
      <path id="Path_54418" data-name="Path 54418" d="M124.451,198.427l.307,3.589L99.8,202.59a7.536,7.536,0,0,1-3.58-.261.988.988,0,0,1-.536-1.2,1.425,1.425,0,0,1,1.1-.623,72.375,72.375,0,0,1,9.275-1.122q9.978-.74,19.987-1c-.141,0-1.767-13.423-1.948-14.662-.706-4.848-1.377-9.717-2.249-14.539a39.181,39.181,0,0,0-1.345-5.511c-10.282-.734-21.02-1.414-31.238-.063.095,4.553-.075,8.606.158,13.179" transform="translate(-81.477 -162.719)" fill="none" stroke="#263238" stroke-linecap="round" stroke-linejoin="round" stroke-width="0.5"/>
      <path id="Path_54419" data-name="Path 54419" d="M102.989,299.934a2.222,2.222,0,0,1-.109-.574" transform="translate(-91.19 -260.08)" fill="none" stroke="#263238" stroke-linecap="round" stroke-linejoin="round" stroke-width="0.5"/>
      <path id="Path_54420" data-name="Path 54420" d="M103.46,284.581c.382-.955,1.526-2.034,4.639-2.378,5.677-.631,18.053-1.767,25.314-2.043" transform="translate(-91.603 -246.388)" fill="none" stroke="#263238" stroke-linecap="round" stroke-linejoin="round" stroke-width="0.5" stroke-dasharray="3.911 3.911"/>
      <path id="Path_54421" data-name="Path 54421" d="M209.83,278.614l.574-.02-.077-.574" transform="translate(-167.458 -244.862)" fill="none" stroke="#263238" stroke-linecap="round" stroke-linejoin="round" stroke-width="0.5"/>
      <path id="Path_54422" data-name="Path 54422" d="M200.046,204.468c-1.305-9.39-2.751-18.71-4.406-28.048" transform="translate(-157.339 -172.409)" fill="none" stroke="#263238" stroke-linecap="round" stroke-linejoin="round" stroke-width="0.5" stroke-dasharray="3.882 3.882"/>
      <path id="Path_54423" data-name="Path 54423" d="M193.637,172.984l-.1-.574-.574-.04" transform="translate(-155.428 -169.521)" fill="none" stroke="#263238" stroke-linecap="round" stroke-linejoin="round" stroke-width="0.5"/>
      <path id="Path_54424" data-name="Path 54424" d="M120.838,170.312c-4.771-.318-18.337-1.113-27.388-.493" transform="translate(-84.465 -167.538)" fill="none" stroke="#263238" stroke-linecap="round" stroke-linejoin="round" stroke-width="0.5" stroke-dasharray="4.066 4.066"/>
      <path id="Path_54425" data-name="Path 54425" d="M89.984,170.54l-.574.046" transform="translate(-81.584 -168.216)" fill="none" stroke="#263238" stroke-linecap="round" stroke-linejoin="round" stroke-width="0.5"/>
      <path id="Path_54426" data-name="Path 54426" d="M85.157,219.125l-.686-7.315a1.641,1.641,0,0,1,1.541-1.793c4.217-.244,15.124-.818,19.31-.482,2.008.161,4.191.806,5.164,2.728.809,1.584.93,3.959-.427,5.261-2.066,1.979-5.984,1.827-8.647,1.922C96.455,219.636,85.16,219.168,85.157,219.125Z" transform="translate(-78.057 -195.951)" fill="none" stroke="#263238" stroke-linecap="round" stroke-linejoin="round" stroke-width="0.5"/>
      <path id="Path_54427" data-name="Path 54427" d="M117.014,227.613c0-.2,1.044,4.2-2.771,5.657s-21.473,1-21.473,1V232.2s12.491.264,14.571.207S116.79,233.041,117.014,227.613Z" transform="translate(-83.98 -208.911)" fill="#263238"/>
      <path id="Path_54428" data-name="Path 54428" d="M164.49,313.43a10.744,10.744,0,0,1,4.289,5.261" transform="translate(-135.125 -270.114)" fill="none" stroke="#263238" stroke-linecap="round" stroke-linejoin="round" stroke-width="0.5"/>
      <path id="Path_54429" data-name="Path 54429" d="M84.79,213.792s15.308-.72,19.2-.591,5.8.987,6.191,3.428-1.974,3.962-3.856,4.249-20.942.37-20.942.37" transform="translate(-78.289 -198.628)" fill="none" stroke="#263238" stroke-linecap="round" stroke-linejoin="round" stroke-width="0.5" stroke-dasharray="4 4"/>
      <path id="Path_54430" data-name="Path 54430" d="M81.49,255.389s-2.37-8.231-6.73-9.851c0,0-.861-5.617,1-5.927s7.109-3.77,5.738-8.087-5.488,2.166-8.231,2.416-5.738,3.873-5.614,6.988-2.869,8.976-2.12,12.336,5.365,9.352,5.738,12.471" transform="translate(-64.469 -210.65)" fill="#fff" stroke="#263238" stroke-linecap="round" stroke-linejoin="round" stroke-width="0.5"/>
      <path id="Path_54431" data-name="Path 54431" d="M101.45,230s3.285.6,5.069-1.489-.27-2.218-.27-2.218Z" transform="translate(-90.17 -207.973)" fill="#fff" stroke="#263238" stroke-linecap="round" stroke-linejoin="round" stroke-width="0.5"/>
      <path id="Path_54432" data-name="Path 54432" d="M81,255.41a3.609,3.609,0,0,1,1.687.554" transform="translate(-75.587 -228.739)" fill="none" stroke="#263238" stroke-linecap="round" stroke-linejoin="round" stroke-width="0.5"/>
      <path id="Path_54433" data-name="Path 54433" d="M80.65,259.57a3.172,3.172,0,0,1,1.641.648" transform="translate(-75.337 -231.705)" fill="none" stroke="#263238" stroke-linecap="round" stroke-linejoin="round" stroke-width="0.5"/>
      <path id="Path_54434" data-name="Path 54434" d="M111.56,296.627s14.057-.726,17.758-.513" transform="translate(-97.38 -257.737)" fill="none" stroke="#263238" stroke-linecap="round" stroke-linejoin="round" stroke-width="0.5"/>
      <path id="Path_54435" data-name="Path 54435" d="M161.53,292.153a35.144,35.144,0,0,1,5.738,0" transform="translate(-133.014 -254.85)" fill="none" stroke="#263238" stroke-linecap="round" stroke-linejoin="round" stroke-width="0.5"/>
      <line id="Line_417" data-name="Line 417" x2="5.723" transform="translate(37.478 38.336)" fill="none" stroke="#263238" stroke-linecap="round" stroke-linejoin="round" stroke-width="0.5"/>
      <path id="Path_54436" data-name="Path 54436" d="M204.84,183.111s25.139-2.246,35.24-.964c0,0,2.725,5.012,2.132,30.7a322.3,322.3,0,0,1-34.219,2.545" transform="translate(-163.899 -176.211)" fill="none" stroke="#263238" stroke-linecap="round" stroke-linejoin="round" stroke-width="0.5" stroke-dasharray="4 4"/>
    </g>
    <g id="freepik--Card--inject-255" transform="translate(93.249 56.145)">
      <g id="Group_7512" data-name="Group 7512" transform="translate(0 2.546)" opacity="0.1">
        <path id="Path_54437" data-name="Path 54437" d="M283.809,163.893c-.714-3.038-1.761-4.18-2.811-5.058a3.679,3.679,0,0,0-1.368-2.7,9.128,9.128,0,0,0-1.148-.861c-1.262-.947-2.654-2.008-2.654-2.008-.654-1.893-1.541-4.186-2.5-6.44l.049.513c-.981-2.4-1.942-4.779-2.212-5.571v-.017c.287.763.574,1.5.889,2.18l-3.592-12.694c-.086-.511-.175-1.013-.264-1.5-.172-1.434-.64-4.137-1.767-4.329a.937.937,0,0,0-.126,0s-1.328-.574-1.328,1.782a3.359,3.359,0,0,0-2.344,3.124,4.2,4.2,0,0,0-.029,1.348c.029.519.089,1.05.169,1.578l-5.089-6.69-.491-.637-6.277-8.262-8.437-11.131a3.95,3.95,0,0,0-5.537-.755l-10.474,7.955-4.088,3.1a4.007,4.007,0,0,0-1.449,6L239.2,146.87a1.9,1.9,0,0,0-.287-.014,1.747,1.747,0,0,0-1.813-1.036,1.5,1.5,0,0,0-.769.255,1.38,1.38,0,0,0-.514.468,4.079,4.079,0,0,0-.384.551c-.657,1.125-.049,3.876.9,7.235.06.218.12.427.178.623v.032l.244.841a100.057,100.057,0,0,1,2.989,12.66c.023.287.037.594.043.881.02,3.575-1.566,9.559-.884,12.032.089.324.181.634.273.941a28.135,28.135,0,0,0,1.759,4.768c.97,1.893,2.126,3.709,3.207,5.543q2.978,5.052,6.162,9.983c.978,1.509,2.123,2.886,3.23,4.3.508.651,1.615,1.629,1.807,2.464,0,0,9.82.812,15.317-2.679l-.516-7.815,3.686-21.186c1.053-1.6,4.3-4.719,4.952-5.706.336-.491.663-.978.981-1.454,2.424-2.263,3.638-4.016,4.171-6.056A3.3,3.3,0,0,0,283.809,163.893Zm-34.388,4.145Zm.393.482-.049-.092a11.607,11.607,0,0,0,3.156.918A7.1,7.1,0,0,1,249.814,168.521Zm4.143.95h0l.528.037a3.951,3.951,0,0,1-.528-.037Zm-4.246-1.165-.66-1.308c-.918-2.634-2.992-8.842-3-8.867h0a35.862,35.862,0,0,0-1.624-5.25,3.124,3.124,0,0,0,2.929-.459l5.02-3.813c.519.313,1.05.594,1.569.841l4.7,3.675-3.729,15.328ZM268.742,133h0c.39,1.83,1.007,4.464,1.825,7.014a45.979,45.979,0,0,1-1.83-7.014Z" transform="translate(-220.147 -104.96)"/>
        <path id="Path_54438" data-name="Path 54438" d="M315.25,459.45l.029.138S315.27,459.536,315.25,459.45Z" transform="translate(-287.967 -357.754)"/>
      </g>
      <path id="Path_54439" data-name="Path 54439" d="M347.571,192.091c.287-.189,4.492-2.479,6.6,4.386s4.576,18.547,4.576,18.547l-5,.973a27.688,27.688,0,0,1-8.79-8.647s-5.824-1.509-8.36-5.095c-2.3-3.259,4.785-15.225,4.785-15.225Z" transform="translate(-302.86 -160.94)" fill="#fff"/>
      <path id="Path_54440" data-name="Path 54440" d="M369.73,234.45c1.239,1.859,3.586,5.769,6.753,7" transform="translate(-326.818 -194.756)" fill="none" stroke="#263238" stroke-linecap="round" stroke-linejoin="round" stroke-width="0.5"/>
      <path id="Path_54441" data-name="Path 54441" d="M357.51,241.42a12.489,12.489,0,0,0,2.685,1.09s2.923,5.786,7.746,7.665" transform="translate(-318.103 -199.726)" fill="none" stroke="#263238" stroke-linecap="round" stroke-linejoin="round" stroke-width="0.5"/>
      <path id="Path_54442" data-name="Path 54442" d="M348.16,248.85a10.392,10.392,0,0,0,5.367,2.582s2.923,5.786,7.746,7.665" transform="translate(-311.436 -205.025)" fill="none" stroke="#263238" stroke-linecap="round" stroke-linejoin="round" stroke-width="0.5"/>
      <rect id="Rectangle_2787" data-name="Rectangle 2787" width="26.186" height="42.691" rx="10.92" transform="translate(3.277 15.84) rotate(-37.22)" fill="#263238"/>
      <path id="Path_54443" data-name="Path 54443" d="M279.743,132.5,265.187,143.56a3.945,3.945,0,0,1-5.537-.757l-21.043-27.7a3.867,3.867,0,0,1-.706-1.515,3.933,3.933,0,0,1,1.46-4.016l4.091-3.1,10.471-7.958a3.95,3.95,0,0,1,5.537.757L267.9,110.38l6.277,8.262,6.311,8.32a3.95,3.95,0,0,1-.749,5.54Z" transform="translate(-232.737 -97.239)" fill="#407bff"/>
      <path id="Path_54444" data-name="Path 54444" d="M281.918,110.38l-24.448-3.916,10.48-7.955a3.95,3.95,0,0,1,5.537.757Z" transform="translate(-246.763 -97.239)" opacity="0.1"/>
      <path id="Path_54445" data-name="Path 54445" d="M279.991,171.984l-14.556,11.059a3.945,3.945,0,0,1-5.537-.757l-21.043-27.7a3.867,3.867,0,0,1-.706-1.515l36.761,5.717,5.829,7.674A3.95,3.95,0,0,1,279.991,171.984Z" transform="translate(-232.985 -136.722)" opacity="0.1"/>
      <rect id="Rectangle_2788" data-name="Rectangle 2788" width="5.568" height="7.485" rx="2.784" transform="translate(19.751 6.742) rotate(-37.22)" fill="#fff" stroke="#263238" stroke-linecap="round" stroke-linejoin="round" stroke-width="0.5"/>
      <line id="Line_418" data-name="Line 418" x2="4.438" y2="6.03" transform="translate(22.022 5.013)" fill="#fff" stroke="#263238" stroke-linecap="round" stroke-linejoin="round" stroke-width="0.5"/>
      <line id="Line_419" data-name="Line 419" y1="3.365" x2="4.438" transform="translate(22.022 6.367)" fill="#fff" stroke="#263238" stroke-linecap="round" stroke-linejoin="round" stroke-width="0.5"/>
      <path id="Path_54446" data-name="Path 54446" d="M302.018,221l-.757.557-9.24-12.164.752-.568Z" transform="translate(-271.401 -176.479)" fill="#263238"/>
      <path id="Path_54447" data-name="Path 54447" d="M306.459,217.65l-.757.562-9.252-12.184.746-.568Z" transform="translate(-274.56 -174.083)" fill="#263238"/>
      <path id="Path_54448" data-name="Path 54448" d="M310.891,214.31l-.754.557-9.266-12.2.749-.571Z" transform="translate(-277.712 -171.686)" fill="#263238"/>
      <path id="Path_54449" data-name="Path 54449" d="M315.66,211.4l-.757.557-9.143-12.035.746-.571Z" transform="translate(-281.199 -169.725)" fill="#263238"/>
      <path id="Path_54450" data-name="Path 54450" d="M320.445,207.8l-.757.559L310.53,196.3l.749-.571Z" transform="translate(-284.601 -167.144)" fill="#263238"/>
      <path id="Path_54451" data-name="Path 54451" d="M320.445,158.356l-.757.557-9.157-12.055.749-.568Z" transform="translate(-284.601 -131.887)" fill="#263238"/>
      <rect id="Rectangle_2789" data-name="Rectangle 2789" width="1.472" height="42.659" transform="translate(14.729 6.207) rotate(-37.22)" fill="#263238"/>
      <path id="Path_54452" data-name="Path 54452" d="M279.743,132.5,265.187,143.56a3.945,3.945,0,0,1-5.537-.757l-21.043-27.7a3.867,3.867,0,0,1-.706-1.515,3.933,3.933,0,0,1,1.46-4.016l4.091-3.1,10.471-7.958a3.95,3.95,0,0,1,5.537.757L267.9,110.38l6.277,8.262,6.311,8.32a3.95,3.95,0,0,1-.749,5.54Z" transform="translate(-232.737 -97.239)" fill="none" stroke="#263238" stroke-linecap="round" stroke-linejoin="round" stroke-width="0.5"/>
      <path id="Path_54453" data-name="Path 54453" d="M304.046,254.868s16.943,6.024,22.07-7.1c0,0-8.018-9.754-3.641-17.723,2.754-5.02,10.371-16.1,10.371-16.1s3.181-3.021,4.171-6.056a11.216,11.216,0,0,0-2.943-5.672,3.687,3.687,0,0,0-1.371-2.7c-1.345-.981-3.813-2.869-3.813-2.869s-4.056-9.731-4.659-11.49a53.114,53.114,0,0,1-2.418-8.756c-.605-3.672-1.165-7.625-2.45-7.614,0,0-1.325-.574-1.325,1.782a4.561,4.561,0,0,0-2.372,4.47c.41,3.035.789,4.6.68,6.311s.439,7.634,1.81,9.493c0,0,.459,8.319,1.148,10.485.023.066.043.126.063.181.723,1.833-6.5,8.893-10.411,10.8,0,0-.41.763-1.928.554s-4.085-.307-4.527-1.434-3.382-9.923-3.382-9.923-2.378-11.274-7.129-11.272a1.752,1.752,0,0,0-2.582-.78c-1.862.941-.643,6.07.181,8.876s2.909,10.181,3.247,13.575-1.584,10.193-.861,12.867,1.526,4.478,3.833,8.856S303.223,251.061,304.046,254.868Z" transform="translate(-268.84 -147.886)" fill="#fff"/>
      <path id="Path_54454" data-name="Path 54454" d="M303.6,305.789s-3.626-13.65-8.956-22.477-2.195-11.948-2.195-19.3-5.987-19.855-4.372-22.612,3.818-.551,4.739,2.022-.367,4.045-2.949,4.229" transform="translate(-268.389 -198.808)" fill="none" stroke="#263238" stroke-linecap="round" stroke-linejoin="round" stroke-width="0.5"/>
      <path id="Path_54455" data-name="Path 54455" d="M300.84,243.748s3.1-.189,5,4.759,4.949,17.5,8.122,21.318" transform="translate(-277.691 -201.386)" fill="none" stroke="#263238" stroke-linecap="round" stroke-linejoin="round" stroke-width="0.5"/>
      <path id="Path_54456" data-name="Path 54456" d="M337.84,318.49c.017.04,4.432,2.5,11.283.344" transform="translate(-304.076 -254.687)" fill="none" stroke="#263238" stroke-linecap="round" stroke-linejoin="round" stroke-width="0.5"/>
      <path id="Path_54457" data-name="Path 54457" d="M302.89,291.549a3.1,3.1,0,0,1,2.9-1.1" transform="translate(-279.153 -234.663)" fill="none" stroke="#263238" stroke-linecap="round" stroke-linejoin="round" stroke-width="0.5"/>
      <path id="Path_54458" data-name="Path 54458" d="M304.94,297.609a2.47,2.47,0,0,1,2.493-.812" transform="translate(-280.615 -239.164)" fill="none" stroke="#263238" stroke-linecap="round" stroke-linejoin="round" stroke-width="0.5"/>
      <path id="Path_54459" data-name="Path 54459" d="M366.06,175.12c-4.5,1.5-1.148,8.3-1.693,10.784s.861,7.232,1.942,9.808c0,3.021,1.076,10.351,1.076,10.351-.666,2.332-6.22,9.206-11.616,11.358" transform="translate(-316.862 -152.446)" fill="none" stroke="#263238" stroke-linecap="round" stroke-linejoin="round" stroke-width="0.5"/>
      <path id="Path_54460" data-name="Path 54460" d="M394.941,174.117s-.336-5.207-1.979-5.207-1.543,3.509-.861,6.113S395.441,177.255,394.941,174.117Z" transform="translate(-342.439 -148.018)" fill="none" stroke="#263238" stroke-linecap="round" stroke-linejoin="round" stroke-width="0.5"/>
      <path id="Path_54461" data-name="Path 54461" d="M403.16,187.06s1.4,8.185,3.772,13.326" transform="translate(-350.657 -160.961)" fill="none" stroke="#263238" stroke-linecap="round" stroke-linejoin="round" stroke-width="0.5"/>
      <path id="Path_54462" data-name="Path 54462" d="M422.288,259.882a16.075,16.075,0,0,0,2.08-5.855c-.106-1.4-1.721-5.981-3.6-10.417" transform="translate(-363.215 -201.288)" fill="none" stroke="#263238" stroke-linecap="round" stroke-linejoin="round" stroke-width="0.5"/>
      <path id="Path_54463" data-name="Path 54463" d="M430,267.56c1.862,1.4,5.1,2.476,4.728,4.891a20.31,20.31,0,0,1-2.5,6.854" transform="translate(-369.797 -218.367)" fill="none" stroke="#263238" stroke-linecap="round" stroke-linejoin="round" stroke-width="0.5"/>
      <path id="Path_54464" data-name="Path 54464" d="M407.919,331.021s-6.486-9.005-5.187-15.225c.955-4.576,7.1-12.577,11.5-19.2,2.427-2.263,3.641-4.016,4.171-6.056-.777-3.83-2.04-4.946-3.253-5.927" transform="translate(-350.229 -230.526)" fill="none" stroke="#263238" stroke-linecap="round" stroke-linejoin="round" stroke-width="0.5"/>
      <path id="Path_54465" data-name="Path 54465" d="M416.523,272.231a5.482,5.482,0,0,0-4.323.588" transform="translate(-357.104 -221.553)" fill="none" stroke="#263238" stroke-linecap="round" stroke-linejoin="round" stroke-width="0.5"/>
      <path id="Path_54466" data-name="Path 54466" d="M419.625,278a4.088,4.088,0,0,0-2.565.45" transform="translate(-360.57 -225.776)" fill="none" stroke="#263238" stroke-linecap="round" stroke-linejoin="round" stroke-width="0.5"/>
    </g>
  </g>
</svg>
